<mxfile host="app.diagrams.net" modified="2023-04-16T08:37:36.111Z" agent="Mozilla/5.0 (Macintosh; Intel Mac OS X 10_15_7) AppleWebKit/537.36 (KHTML, like Gecko) Chrome/112.0.0.0 Safari/537.36" etag="zgVTlG4uwM75M7dTc_w9" version="21.1.8" type="device">
  <diagram name="Page-1" id="AoA87Er2gA-crZBiEvDD">
    <mxGraphModel dx="2693" dy="1091" grid="1" gridSize="10" guides="1" tooltips="1" connect="1" arrows="1" fold="1" page="1" pageScale="1" pageWidth="827" pageHeight="1169" math="0" shadow="0">
      <root>
        <mxCell id="0" />
        <mxCell id="1" parent="0" />
        <mxCell id="zaOTciwMg_2Ca42rMOiH-1" value="" style="rounded=1;whiteSpace=wrap;html=1;dashed=1;strokeWidth=2;strokeColor=#452884;" vertex="1" parent="1">
          <mxGeometry x="180" y="380" width="480" height="140" as="geometry" />
        </mxCell>
        <mxCell id="zaOTciwMg_2Ca42rMOiH-2" value="Registry" style="rounded=1;whiteSpace=wrap;html=1;arcSize=23;strokeColor=none;fillColor=#002c88;fontColor=#FFFfff;" vertex="1" parent="1">
          <mxGeometry x="197" y="398" width="143" height="47" as="geometry" />
        </mxCell>
        <mxCell id="zaOTciwMg_2Ca42rMOiH-7" value="User Management" style="rounded=1;whiteSpace=wrap;html=1;arcSize=23;strokeColor=none;fillColor=#002c88;fontColor=#ffffff;" vertex="1" parent="1">
          <mxGeometry x="197" y="454" width="143" height="47" as="geometry" />
        </mxCell>
        <mxCell id="zaOTciwMg_2Ca42rMOiH-23" value="Trading &amp;amp; Services" style="rounded=1;whiteSpace=wrap;html=1;arcSize=23;strokeColor=none;fillColor=#002c88;fontColor=#FFFfff;" vertex="1" parent="1">
          <mxGeometry x="348.5" y="398.5" width="143" height="47" as="geometry" />
        </mxCell>
        <mxCell id="zaOTciwMg_2Ca42rMOiH-24" value="Multi-sig Wallet&lt;br&gt;Accounts" style="rounded=1;whiteSpace=wrap;html=1;arcSize=23;strokeColor=none;fillColor=#002c88;fontColor=#ffffff;" vertex="1" parent="1">
          <mxGeometry x="348.5" y="454.5" width="143" height="47" as="geometry" />
        </mxCell>
        <mxCell id="zaOTciwMg_2Ca42rMOiH-25" value="Structured Products" style="rounded=1;whiteSpace=wrap;html=1;arcSize=23;strokeColor=none;fillColor=#002c88;fontColor=#FFFfff;" vertex="1" parent="1">
          <mxGeometry x="500" y="398.5" width="143" height="47" as="geometry" />
        </mxCell>
        <mxCell id="zaOTciwMg_2Ca42rMOiH-26" value="Security and&lt;br&gt;Compliance" style="rounded=1;whiteSpace=wrap;html=1;arcSize=23;strokeColor=none;fillColor=#002c88;fontColor=#ffffff;" vertex="1" parent="1">
          <mxGeometry x="500" y="454.5" width="143" height="47" as="geometry" />
        </mxCell>
        <mxCell id="zaOTciwMg_2Ca42rMOiH-29" value="" style="endArrow=classic;startArrow=classic;html=1;rounded=0;" edge="1" parent="1">
          <mxGeometry width="50" height="50" relative="1" as="geometry">
            <mxPoint x="372.69" y="380" as="sourcePoint" />
            <mxPoint x="372.07" y="340" as="targetPoint" />
          </mxGeometry>
        </mxCell>
        <mxCell id="zaOTciwMg_2Ca42rMOiH-32" value="" style="endArrow=classic;startArrow=classic;html=1;rounded=0;" edge="1" parent="1">
          <mxGeometry width="50" height="50" relative="1" as="geometry">
            <mxPoint x="371.82" y="280" as="sourcePoint" />
            <mxPoint x="371.2" y="230" as="targetPoint" />
          </mxGeometry>
        </mxCell>
        <mxCell id="zaOTciwMg_2Ca42rMOiH-35" value="" style="endArrow=classic;startArrow=classic;html=1;rounded=0;exitX=0.185;exitY=-0.027;exitDx=0;exitDy=0;exitPerimeter=0;" edge="1" parent="1">
          <mxGeometry width="50" height="50" relative="1" as="geometry">
            <mxPoint x="310.00000000000017" y="376.22" as="sourcePoint" />
            <mxPoint x="331.2" y="200" as="targetPoint" />
            <Array as="points">
              <mxPoint x="311.2" y="200" />
            </Array>
          </mxGeometry>
        </mxCell>
        <mxCell id="zaOTciwMg_2Ca42rMOiH-37" value="&lt;span style=&quot;font-family: Helvetica; font-size: 12px; font-style: normal; font-variant-ligatures: normal; font-variant-caps: normal; font-weight: 400; letter-spacing: normal; orphans: 2; text-indent: 0px; text-transform: none; widows: 2; word-spacing: 0px; -webkit-text-stroke-width: 0px; background-color: rgb(251, 251, 251); text-decoration-thickness: initial; text-decoration-style: initial; text-decoration-color: initial; float: none; display: inline !important;&quot;&gt;Aggregator/&lt;br&gt;Brokers&lt;br&gt;&lt;/span&gt;" style="text;whiteSpace=wrap;html=1;fontColor=#000000;align=center;" vertex="1" parent="1">
          <mxGeometry x="430" y="290" width="75" height="40" as="geometry" />
        </mxCell>
        <mxCell id="zaOTciwMg_2Ca42rMOiH-38" value="&lt;span style=&quot;font-family: Helvetica; font-size: 12px; font-style: normal; font-variant-ligatures: normal; font-variant-caps: normal; font-weight: 400; letter-spacing: normal; orphans: 2; text-indent: 0px; text-transform: none; widows: 2; word-spacing: 0px; -webkit-text-stroke-width: 0px; background-color: rgb(251, 251, 251); text-decoration-thickness: initial; text-decoration-style: initial; text-decoration-color: initial; float: none; display: inline !important;&quot;&gt;Investors&lt;br&gt;&lt;/span&gt;" style="text;whiteSpace=wrap;html=1;fontColor=#000000;align=center;" vertex="1" parent="1">
          <mxGeometry x="331.2" y="150" width="80" height="30" as="geometry" />
        </mxCell>
        <mxCell id="zaOTciwMg_2Ca42rMOiH-39" value="&lt;span style=&quot;font-family: Helvetica; font-size: 12px; font-style: normal; font-variant-ligatures: normal; font-variant-caps: normal; font-weight: 400; letter-spacing: normal; orphans: 2; text-indent: 0px; text-transform: none; widows: 2; word-spacing: 0px; -webkit-text-stroke-width: 0px; background-color: rgb(251, 251, 251); text-decoration-thickness: initial; text-decoration-style: initial; text-decoration-color: initial; float: none; display: inline !important;&quot;&gt;Corporates/ Institutions&lt;br&gt;&lt;/span&gt;" style="text;whiteSpace=wrap;html=1;fontColor=#000000;align=center;" vertex="1" parent="1">
          <mxGeometry x="491.5" y="150" width="130" height="30" as="geometry" />
        </mxCell>
        <mxCell id="zaOTciwMg_2Ca42rMOiH-40" value="" style="endArrow=classic;html=1;rounded=0;" edge="1" parent="1">
          <mxGeometry width="50" height="50" relative="1" as="geometry">
            <mxPoint x="440" y="520" as="sourcePoint" />
            <mxPoint x="440" y="560" as="targetPoint" />
          </mxGeometry>
        </mxCell>
        <mxCell id="zaOTciwMg_2Ca42rMOiH-42" value="" style="endArrow=classic;html=1;rounded=0;entryX=0.542;entryY=1;entryDx=0;entryDy=0;entryPerimeter=0;" edge="1" parent="1">
          <mxGeometry width="50" height="50" relative="1" as="geometry">
            <mxPoint x="400" y="560" as="sourcePoint" />
            <mxPoint x="400.1600000000001" y="520" as="targetPoint" />
          </mxGeometry>
        </mxCell>
        <mxCell id="zaOTciwMg_2Ca42rMOiH-43" value="" style="rounded=1;whiteSpace=wrap;html=1;dashed=1;strokeWidth=2;strokeColor=#452884;" vertex="1" parent="1">
          <mxGeometry x="180" y="560" width="480" height="80" as="geometry" />
        </mxCell>
        <mxCell id="zaOTciwMg_2Ca42rMOiH-44" value="Multi Protocol Interface" style="rounded=1;whiteSpace=wrap;html=1;arcSize=23;strokeColor=none;fillColor=#374798;fontColor=#FFFfff;" vertex="1" parent="1">
          <mxGeometry x="197" y="576.5" width="443" height="47" as="geometry" />
        </mxCell>
        <mxCell id="zaOTciwMg_2Ca42rMOiH-45" value="" style="endArrow=classic;startArrow=classic;html=1;rounded=0;" edge="1" parent="1">
          <mxGeometry width="50" height="50" relative="1" as="geometry">
            <mxPoint x="320.62" y="680" as="sourcePoint" />
            <mxPoint x="320" y="640" as="targetPoint" />
          </mxGeometry>
        </mxCell>
        <mxCell id="zaOTciwMg_2Ca42rMOiH-46" value="" style="endArrow=classic;startArrow=classic;html=1;rounded=0;" edge="1" parent="1">
          <mxGeometry width="50" height="50" relative="1" as="geometry">
            <mxPoint x="420.22" y="680" as="sourcePoint" />
            <mxPoint x="419.6" y="640" as="targetPoint" />
          </mxGeometry>
        </mxCell>
        <mxCell id="zaOTciwMg_2Ca42rMOiH-47" value="" style="endArrow=classic;startArrow=classic;html=1;rounded=0;" edge="1" parent="1">
          <mxGeometry width="50" height="50" relative="1" as="geometry">
            <mxPoint x="520.62" y="680" as="sourcePoint" />
            <mxPoint x="520" y="640" as="targetPoint" />
          </mxGeometry>
        </mxCell>
        <mxCell id="zaOTciwMg_2Ca42rMOiH-48" value="" style="rounded=1;whiteSpace=wrap;html=1;dashed=1;strokeWidth=2;strokeColor=#452884;" vertex="1" parent="1">
          <mxGeometry x="180" y="680" width="480" height="80" as="geometry" />
        </mxCell>
        <mxCell id="zaOTciwMg_2Ca42rMOiH-50" value="&lt;span style=&quot;font-family: Helvetica; font-size: 12px; font-style: normal; font-variant-ligatures: normal; font-variant-caps: normal; font-weight: 400; letter-spacing: normal; orphans: 2; text-indent: 0px; text-transform: none; widows: 2; word-spacing: 0px; -webkit-text-stroke-width: 0px; background-color: rgb(251, 251, 251); text-decoration-thickness: initial; text-decoration-style: initial; text-decoration-color: initial; float: none; display: inline !important;&quot;&gt;Smart Contract based Decentralized Finance Protocols&lt;br&gt;&lt;/span&gt;" style="text;whiteSpace=wrap;html=1;fontColor=#000000;align=center;" vertex="1" parent="1">
          <mxGeometry x="238.5" y="729" width="360" height="21" as="geometry" />
        </mxCell>
        <mxCell id="zaOTciwMg_2Ca42rMOiH-51" value="&lt;font style=&quot;font-size: 14px;&quot;&gt;Blockchain Network&lt;/font&gt;" style="rounded=1;whiteSpace=wrap;html=1;arcSize=23;strokeColor=none;fillColor=#002c88;fontColor=#FFFfff;" vertex="1" parent="1">
          <mxGeometry x="180" y="780" width="480" height="47" as="geometry" />
        </mxCell>
        <mxCell id="zaOTciwMg_2Ca42rMOiH-52" value="" style="endArrow=classic;startArrow=classic;html=1;rounded=0;" edge="1" parent="1">
          <mxGeometry width="50" height="50" relative="1" as="geometry">
            <mxPoint x="670" y="450" as="sourcePoint" />
            <mxPoint x="780" y="450" as="targetPoint" />
          </mxGeometry>
        </mxCell>
        <mxCell id="zaOTciwMg_2Ca42rMOiH-54" value="&lt;span style=&quot;font-family: Helvetica; font-size: 12px; font-style: normal; font-variant-ligatures: normal; font-variant-caps: normal; font-weight: 400; letter-spacing: normal; orphans: 2; text-indent: 0px; text-transform: none; widows: 2; word-spacing: 0px; -webkit-text-stroke-width: 0px; background-color: rgb(251, 251, 251); text-decoration-thickness: initial; text-decoration-style: initial; text-decoration-color: initial; float: none; display: inline !important;&quot;&gt;Integration&lt;br&gt;&lt;/span&gt;" style="text;whiteSpace=wrap;html=1;fontColor=#000000;align=center;" vertex="1" parent="1">
          <mxGeometry x="688" y="420" width="80" height="30" as="geometry" />
        </mxCell>
        <mxCell id="zaOTciwMg_2Ca42rMOiH-55" value="" style="rounded=1;whiteSpace=wrap;html=1;dashed=1;strokeWidth=2;strokeColor=#452884;arcSize=12;" vertex="1" parent="1">
          <mxGeometry x="800" y="280" width="200" height="260" as="geometry" />
        </mxCell>
        <mxCell id="zaOTciwMg_2Ca42rMOiH-56" value="Asset Wrapper" style="rounded=1;whiteSpace=wrap;html=1;arcSize=23;strokeColor=none;fillColor=#722a84;fontColor=#FFFfff;" vertex="1" parent="1">
          <mxGeometry x="818.5" y="297" width="163" height="47" as="geometry" />
        </mxCell>
        <mxCell id="zaOTciwMg_2Ca42rMOiH-57" value="Relayer Networks" style="rounded=1;whiteSpace=wrap;html=1;arcSize=23;strokeColor=none;fillColor=#722a84;fontColor=#FFFfff;" vertex="1" parent="1">
          <mxGeometry x="818.5" y="357" width="163" height="47" as="geometry" />
        </mxCell>
        <mxCell id="zaOTciwMg_2Ca42rMOiH-58" value="Liquidity Pools" style="rounded=1;whiteSpace=wrap;html=1;arcSize=23;strokeColor=none;fillColor=#722a84;fontColor=#FFFfff;" vertex="1" parent="1">
          <mxGeometry x="818.5" y="415.5" width="163" height="47" as="geometry" />
        </mxCell>
        <mxCell id="zaOTciwMg_2Ca42rMOiH-62" value="Custodial Services" style="rounded=1;whiteSpace=wrap;html=1;arcSize=23;strokeColor=none;fillColor=#722a84;fontColor=#FFFfff;" vertex="1" parent="1">
          <mxGeometry x="818.5" y="473.5" width="163" height="47" as="geometry" />
        </mxCell>
        <mxCell id="zaOTciwMg_2Ca42rMOiH-66" value="" style="endArrow=classic;startArrow=classic;html=1;rounded=0;exitX=0.793;exitY=-0.015;exitDx=0;exitDy=0;exitPerimeter=0;" edge="1" parent="1">
          <mxGeometry width="50" height="50" relative="1" as="geometry">
            <mxPoint x="1020" y="439.75" as="sourcePoint" />
            <mxPoint x="1130" y="439.55" as="targetPoint" />
          </mxGeometry>
        </mxCell>
        <mxCell id="zaOTciwMg_2Ca42rMOiH-67" value="&lt;span style=&quot;font-family: Helvetica; font-size: 12px; font-style: normal; font-variant-ligatures: normal; font-variant-caps: normal; font-weight: 400; letter-spacing: normal; orphans: 2; text-indent: 0px; text-transform: none; widows: 2; word-spacing: 0px; -webkit-text-stroke-width: 0px; background-color: rgb(251, 251, 251); text-decoration-thickness: initial; text-decoration-style: initial; text-decoration-color: initial; float: none; display: inline !important;&quot;&gt;Network&lt;br&gt;&lt;/span&gt;" style="text;whiteSpace=wrap;html=1;fontColor=#000000;align=center;" vertex="1" parent="1">
          <mxGeometry x="1036" y="409.55" width="80" height="30" as="geometry" />
        </mxCell>
        <mxCell id="zaOTciwMg_2Ca42rMOiH-68" value="" style="endArrow=classic;startArrow=classic;html=1;rounded=0;exitX=0.793;exitY=-0.015;exitDx=0;exitDy=0;exitPerimeter=0;" edge="1" parent="1">
          <mxGeometry width="50" height="50" relative="1" as="geometry">
            <mxPoint x="1021" y="459.75" as="sourcePoint" />
            <mxPoint x="1131" y="459.55" as="targetPoint" />
          </mxGeometry>
        </mxCell>
        <mxCell id="zaOTciwMg_2Ca42rMOiH-69" value="&lt;span style=&quot;font-family: Helvetica; font-size: 12px; font-style: normal; font-variant-ligatures: normal; font-variant-caps: normal; font-weight: 400; letter-spacing: normal; orphans: 2; text-indent: 0px; text-transform: none; widows: 2; word-spacing: 0px; -webkit-text-stroke-width: 0px; background-color: rgb(251, 251, 251); text-decoration-thickness: initial; text-decoration-style: initial; text-decoration-color: initial; float: none; display: inline !important;&quot;&gt;External Systems&lt;br&gt;&lt;/span&gt;" style="text;whiteSpace=wrap;html=1;fontColor=#000000;align=center;" vertex="1" parent="1">
          <mxGeometry x="1120.5" y="477.23" width="109" height="30" as="geometry" />
        </mxCell>
        <mxCell id="zaOTciwMg_2Ca42rMOiH-71" value="Private Blockchain Network" style="rounded=1;whiteSpace=wrap;html=1;arcSize=23;strokeColor=none;fillColor=#374798;fontColor=#FFFfff;" vertex="1" parent="1">
          <mxGeometry x="800" y="630" width="180" height="40" as="geometry" />
        </mxCell>
        <mxCell id="zaOTciwMg_2Ca42rMOiH-73" value="" style="endArrow=classic;startArrow=classic;html=1;rounded=0;" edge="1" parent="1">
          <mxGeometry width="50" height="50" relative="1" as="geometry">
            <mxPoint x="670" y="480" as="sourcePoint" />
            <mxPoint x="790" y="650" as="targetPoint" />
            <Array as="points">
              <mxPoint x="730" y="480" />
              <mxPoint x="730" y="650" />
            </Array>
          </mxGeometry>
        </mxCell>
        <mxCell id="zaOTciwMg_2Ca42rMOiH-74" value="" style="endArrow=classic;startArrow=classic;html=1;rounded=0;" edge="1" parent="1">
          <mxGeometry width="50" height="50" relative="1" as="geometry">
            <mxPoint x="165" y="480" as="sourcePoint" />
            <mxPoint x="60" y="650" as="targetPoint" />
            <Array as="points">
              <mxPoint x="145" y="480" />
              <mxPoint x="110" y="480" />
              <mxPoint x="110" y="650" />
            </Array>
          </mxGeometry>
        </mxCell>
        <mxCell id="zaOTciwMg_2Ca42rMOiH-75" value="Oracle Services" style="rounded=1;whiteSpace=wrap;html=1;arcSize=23;strokeColor=none;fillColor=#374798;fontColor=#FFFfff;" vertex="1" parent="1">
          <mxGeometry x="-70" y="623.5" width="120" height="46.5" as="geometry" />
        </mxCell>
        <mxCell id="zaOTciwMg_2Ca42rMOiH-76" value="&lt;span style=&quot;font-family: Helvetica; font-size: 12px; font-style: normal; font-variant-ligatures: normal; font-variant-caps: normal; font-weight: 400; letter-spacing: normal; orphans: 2; text-indent: 0px; text-transform: none; widows: 2; word-spacing: 0px; -webkit-text-stroke-width: 0px; background-color: rgb(251, 251, 251); text-decoration-thickness: initial; text-decoration-style: initial; text-decoration-color: initial; float: none; display: inline !important;&quot;&gt;Ext. Services&lt;br&gt;&lt;/span&gt;" style="text;whiteSpace=wrap;html=1;fontColor=#000000;align=center;rotation=-90;" vertex="1" parent="1">
          <mxGeometry x="30" y="573" width="110" height="23.5" as="geometry" />
        </mxCell>
        <mxCell id="zaOTciwMg_2Ca42rMOiH-79" value="" style="endArrow=classic;startArrow=classic;html=1;rounded=0;" edge="1" parent="1">
          <mxGeometry width="50" height="50" relative="1" as="geometry">
            <mxPoint x="56" y="449.05" as="sourcePoint" />
            <mxPoint x="166" y="449.05" as="targetPoint" />
          </mxGeometry>
        </mxCell>
        <mxCell id="zaOTciwMg_2Ca42rMOiH-80" value="&lt;span style=&quot;font-family: Helvetica; font-size: 12px; font-style: normal; font-variant-ligatures: normal; font-variant-caps: normal; font-weight: 400; letter-spacing: normal; orphans: 2; text-indent: 0px; text-transform: none; widows: 2; word-spacing: 0px; -webkit-text-stroke-width: 0px; background-color: rgb(251, 251, 251); text-decoration-thickness: initial; text-decoration-style: initial; text-decoration-color: initial; float: none; display: inline !important;&quot;&gt;Integration&lt;br&gt;&lt;/span&gt;" style="text;whiteSpace=wrap;html=1;fontColor=#000000;align=center;" vertex="1" parent="1">
          <mxGeometry x="74" y="419.05" width="80" height="30" as="geometry" />
        </mxCell>
        <mxCell id="zaOTciwMg_2Ca42rMOiH-81" value="&lt;span style=&quot;font-family: Helvetica; font-size: 12px; font-style: normal; font-variant-ligatures: normal; font-variant-caps: normal; font-weight: 400; letter-spacing: normal; orphans: 2; text-indent: 0px; text-transform: none; widows: 2; word-spacing: 0px; -webkit-text-stroke-width: 0px; background-color: rgb(251, 251, 251); text-decoration-thickness: initial; text-decoration-style: initial; text-decoration-color: initial; float: none; display: inline !important;&quot;&gt;Enterprise Apps&lt;br&gt;&lt;/span&gt;" style="text;whiteSpace=wrap;html=1;fontColor=#000000;align=center;" vertex="1" parent="1">
          <mxGeometry x="-60" y="477.78000000000003" width="100" height="29.45" as="geometry" />
        </mxCell>
        <mxCell id="zaOTciwMg_2Ca42rMOiH-82" value="&lt;span style=&quot;font-family: Helvetica; font-size: 12px; font-style: normal; font-variant-ligatures: normal; font-variant-caps: normal; font-weight: 400; letter-spacing: normal; orphans: 2; text-indent: 0px; text-transform: none; widows: 2; word-spacing: 0px; -webkit-text-stroke-width: 0px; background-color: rgb(251, 251, 251); text-decoration-thickness: initial; text-decoration-style: initial; text-decoration-color: initial; float: none; display: inline !important;&quot;&gt;Banks&lt;br&gt;&lt;/span&gt;" style="text;whiteSpace=wrap;html=1;fontColor=#000000;align=center;" vertex="1" parent="1">
          <mxGeometry x="-280" y="477.78000000000003" width="100" height="29.45" as="geometry" />
        </mxCell>
        <mxCell id="zaOTciwMg_2Ca42rMOiH-83" value="" style="endArrow=classic;startArrow=classic;html=1;rounded=0;" edge="1" parent="1">
          <mxGeometry width="50" height="50" relative="1" as="geometry">
            <mxPoint x="-180" y="449.52000000000004" as="sourcePoint" />
            <mxPoint x="-70" y="449.52000000000004" as="targetPoint" />
          </mxGeometry>
        </mxCell>
        <mxCell id="zaOTciwMg_2Ca42rMOiH-84" value="&lt;span style=&quot;font-family: Helvetica; font-size: 12px; font-style: normal; font-variant-ligatures: normal; font-variant-caps: normal; font-weight: 400; letter-spacing: normal; orphans: 2; text-indent: 0px; text-transform: none; widows: 2; word-spacing: 0px; -webkit-text-stroke-width: 0px; background-color: rgb(251, 251, 251); text-decoration-thickness: initial; text-decoration-style: initial; text-decoration-color: initial; float: none; display: inline !important;&quot;&gt;Financial Network&lt;br&gt;&lt;/span&gt;" style="text;whiteSpace=wrap;html=1;fontColor=#000000;align=center;" vertex="1" parent="1">
          <mxGeometry x="-162" y="401" width="80" height="40" as="geometry" />
        </mxCell>
        <mxCell id="zaOTciwMg_2Ca42rMOiH-86" value="" style="endArrow=classic;html=1;rounded=0;" edge="1" parent="1">
          <mxGeometry width="50" height="50" relative="1" as="geometry">
            <mxPoint x="-11" y="390" as="sourcePoint" />
            <mxPoint x="-11" y="260" as="targetPoint" />
          </mxGeometry>
        </mxCell>
        <mxCell id="zaOTciwMg_2Ca42rMOiH-87" value="&lt;span style=&quot;font-family: Helvetica; font-size: 12px; font-style: normal; font-variant-ligatures: normal; font-variant-caps: normal; font-weight: 400; letter-spacing: normal; orphans: 2; text-indent: 0px; text-transform: none; widows: 2; word-spacing: 0px; -webkit-text-stroke-width: 0px; background-color: rgb(251, 251, 251); text-decoration-thickness: initial; text-decoration-style: initial; text-decoration-color: initial; float: none; display: inline !important;&quot;&gt;Reporting&lt;br&gt;&lt;/span&gt;" style="text;whiteSpace=wrap;html=1;fontColor=#000000;align=center;rotation=-90;" vertex="1" parent="1">
          <mxGeometry x="-34.5" y="308.5" width="83" height="30" as="geometry" />
        </mxCell>
        <mxCell id="zaOTciwMg_2Ca42rMOiH-89" value="&lt;span style=&quot;font-family: Helvetica; font-size: 12px; font-style: normal; font-variant-ligatures: normal; font-variant-caps: normal; font-weight: 400; letter-spacing: normal; orphans: 2; text-indent: 0px; text-transform: none; widows: 2; word-spacing: 0px; -webkit-text-stroke-width: 0px; background-color: rgb(251, 251, 251); text-decoration-thickness: initial; text-decoration-style: initial; text-decoration-color: initial; float: none; display: inline !important;&quot;&gt;Regulator&lt;br&gt;&lt;/span&gt;" style="text;whiteSpace=wrap;html=1;fontColor=#000000;align=center;" vertex="1" parent="1">
          <mxGeometry x="-50" y="152" width="80" height="30" as="geometry" />
        </mxCell>
        <mxCell id="zaOTciwMg_2Ca42rMOiH-91" value="" style="endArrow=classic;html=1;rounded=0;exitX=0.081;exitY=-0.021;exitDx=0;exitDy=0;exitPerimeter=0;" edge="1" parent="1" source="zaOTciwMg_2Ca42rMOiH-1">
          <mxGeometry width="50" height="50" relative="1" as="geometry">
            <mxPoint x="220" y="368.5" as="sourcePoint" />
            <mxPoint x="180" y="200" as="targetPoint" />
            <Array as="points">
              <mxPoint x="219" y="200" />
            </Array>
          </mxGeometry>
        </mxCell>
        <mxCell id="zaOTciwMg_2Ca42rMOiH-92" value="&lt;span style=&quot;font-family: Helvetica; font-size: 12px; font-style: normal; font-variant-ligatures: normal; font-variant-caps: normal; font-weight: 400; letter-spacing: normal; orphans: 2; text-indent: 0px; text-transform: none; widows: 2; word-spacing: 0px; -webkit-text-stroke-width: 0px; background-color: rgb(251, 251, 251); text-decoration-thickness: initial; text-decoration-style: initial; text-decoration-color: initial; float: none; display: inline !important;&quot;&gt;Auditors&lt;br&gt;&lt;/span&gt;" style="text;whiteSpace=wrap;html=1;fontColor=#000000;align=center;" vertex="1" parent="1">
          <mxGeometry x="104" y="150" width="80" height="30" as="geometry" />
        </mxCell>
        <mxCell id="zaOTciwMg_2Ca42rMOiH-95" value="" style="endArrow=classic;html=1;rounded=0;" edge="1" parent="1">
          <mxGeometry width="50" height="50" relative="1" as="geometry">
            <mxPoint x="109.03" y="200" as="sourcePoint" />
            <mxPoint x="48.50000000000003" y="200" as="targetPoint" />
          </mxGeometry>
        </mxCell>
        <mxCell id="zaOTciwMg_2Ca42rMOiH-102" value="" style="shape=image;verticalLabelPosition=bottom;labelBackgroundColor=default;verticalAlign=top;aspect=fixed;imageAspect=0;image=data:image/png,iVBORw0KGgoAAAANSUhEUgAAAIAAAACAEAYAAACTrr2IAAAAIGNIUk0AAHomAACAhAAA+gAAAIDoAAB1MAAA6mAAADqYAAAXcJy6UTwAAAAGYktHRAAAAAAAAPlDu38AAAAJcEhZcwAAAGAAAABgAPBrQs8AAAAHdElNRQfnBBAICCZ2yy6IAAALpElEQVR42u3deXBV5RnH8e97CFkQNBA2YZDJItIiuBADFrVArTIoRMQmOkNFBJIQKNqCoa0OFAMCZUJIQJPcAG6jSMpiW0tbKIoVCwIFBYKVLNDYokJLrIKRkNy3fwDdtCq5y0lyfp+/MsnNe57nTc5vzr157olBWrmSkqOT27UD26Yu8d57wfyG3XffDRwwr37968Aae8haoANt9+8H+wvzvdWrIeoBs+q552CCiTeffup2FxIaxu0CJNiKvl3VtWtXcDbxQXY2mBgzfto0sAV2TlzcBSyUbwYfPw7mGqJXrYI2V0fcXVgIE2ddtvjoUbe7lOBQALR4xSlVGZdfDmai6TBtGphsmzx5MtgnSImJCeKBkul4+jTwMKPKysB291+zcCFkPXX58oMH3d4FaRoFQItTUlxVecMNwHTenDUL6MfFt90GZJFowvnzLKbKWiCei7ZsAbvC1BcWQlanhGG//KXbuyRfjQKg2Sop3r2rbVuATp3uuANMrn155kywsxmekuJ2df+fmWOW790L/mx/n6VLwXT9MHn1asjMSr7uzBm3q5P/pgBoNgpHVEy7+GKIvtGpnzABWGBWzpgBNs8e6tXL7eoC8vR77wEZzPX5oLEooqagALKze/eurXW7NK9TALimtM+Ruvh4sAP9fTIzwe6zpZmZwHQuj411u7oQesOM+PhjYBCjn3wSsHZKXh5kZiUm1dS4XZzXKADCpqSksu+11wIbTNyDD4L5rel5zz1gi+2CiAi3q3PRQDb5/cA36LJxIziZztj582HysnizY4fbxbV2CoCgm2OtdRy4tPbw1ttuAzPJRk6fDtxK95tvdru6lsPMN1e+/jrYH3OgoAA6dopPWL8e0tKMaWx0u7rWQgEQsMIRFdOioiDyG6ZfejqYrubIj34EGDL69nW7ulZkoRlSWQlmkh29fDnYzjG2tBQyM3uUfvKJ28W1VAqACxa0QRsJjAaVgkAB8KXCNmgjgdGgUhMoAD6j2QzaSGA0qPQVePgXumxN+V2RkVBbG7MoNRXYao899BAwjK7XXed2dRIyW5n75ptgv2avz8/3+qCShwKgFQ/aSGA8PKjUigPgM4M2Q+3WrKyzX7vkErerk2bLU4NKrSgASksrKwcOBP86M/6BBzRoI0HSqgeVWmAAaNBGmoPWMajUAgJAgzbSIrTIQaVmGAAatJFWoUUMKjWDAPD9ozq1Tx+wL5A0daoGbaSVapaDSi4EgAZtRGgmg0ohPOE0aCPSBGEdVApiAGjQRiQkQjioFEAAaNBGxAX/M6jUZhS5S5bApB4J7f785wtd7AICQIM2Is1QQINKnxMA1lprDPh8VbtTU8HMd26aORPsw/bAkCFudysiX4VZZJ7auhX8uxm+ZAlkdowf+tJLYIwx1v7rUf/+huXXvb0sLg7avhOVX1YGLLabhw93uw0RCYpv023LFmizLLIkLQ0m5feaceKEgTn2FRsRAT26Xnbza68B8/ANHux2tSISEsPNvO3bgS0nsr/5TQMlJVVVU6ac/doTT7hdnYiEg6kzd06d6oB5lJfvu8/tckQkrBbbaePHO8D7tO/f3+1qRCSs3qd9//6O21WIiBvsTm51HAfozsn9+90uR0TCqj0R+/c7QJ1JfvZZt6sRkXCye+2+Z55xILaobr7PB7zCsV273C5LRELq3HneyZxeWlLiQFp6v7X19cDQhrdGjgS+xXO//73bVYpIUJ0/r8+d52fP+88ZBT5/z72egw53GjPm7OfGjgWbYDcmJQFbTZqjFw9FmiXTxs5ubAR6mpyqqrOfW7cO/vpG/IkNG2CuMcbvd7tKERERERERERERCZMQ3hTUt7T6quxsYD5vT5kCdrPN69nT7YZFWohoTtXUgBllpuflQUZFQrvgD+yFIACKH60suvdeMN3MLU8/HY6dEmn97HdMzejRwb5teAj+nu88a+y4ceHcGpHWz5TZld/9brBXDUEA2H5mdUNDOLZExEMMc4P/fwFCEQBrbPaKFeHYEREPOPcfhJw8rl+5MtiLh/JFwDcOD01LA7vY3zk7G8xmE9erF9g7bVRsLDCYBzp1CsGB/2Bu/8tfwLzITfX1oevvy9hLWd+hA/B9u6NLlxAcII8fHz0K5gMT++mn7vXJGXtju3Zg87m+e/cQrL+dv3/wAZgNZuWpU+61abvZD6OjgRk81qNHKI5gxv3tb2ByGPDRR2Atm48cAdvX3pyXB1k7E30bNwb9mKHets/yRVeNyMkBW8DjixYFf31ztZ1y5ZWQMShpU3l5+Ps7r3hp9YSJE8HE2EdCcUVk3nSeGjoUMoric1991cU+R1Xek5oK5nYz78UXQ9DnSpN8112QsTOhdt069/osqqwaMWQIOFt4fNu24K9v2/CzKVMga1LiD4uLw9WV3tQj4mEKABEPUwCIeJgCQMTDFAAiHqYAEPEwBYCIhykARDxMASDiYQoAEQ9TAIh4mAJAxMMUACIepgAQ8TAFgIiHKQBEPEwBIOJhCgARD1MAiHiYAkDEwxQAIh6mABDxMAWAiIcpAEQ8TAEg4mEKABEPUwCIeJgCQMTDFAAiHqYAEPEwBYCIhykARDxMASDiYQoAEQ9TAIh4mAJAxMMUACIepgAQ8TAFgIiHKQBEPEwBIOJhCgARD1MAiHiYAkDEwxQAIh6mABDxMAWAiIcpAEQ8TAEg4mEKABEPUwCIeJgJ/pK+Nypv6dcP/HFm0333gdlCxoABwBzz67g4YBPXdu8ObLdLevYMQU83mocPHgSG83pdXSg370tcZIs7dwZy6Nu7dwjWf43jhw4BvzPf+fhjF/v8CYmxsYCxKxMTg7+8yTE/ra4GG8PG2lr32jT1Nrd9e7ALuPGKK0JzjJoaYI4Zevw4sIPU48fBnrJX7d0LESts+apVMCk/aWllZdC6CnyJOdZax4FLD1avmDcPTB0Ns2YBf+QWR1cYIkFi0s+cAbBrZs+GzMzExIULA14z8LJ8E6r/kJsLdrDt9sgjbm+SiDeYGabPD34AGScTGvPzm7xK0wvw/aM6tU8fIJao8nKwxXZBRITb2yLiDSabnXV10OaxtnuSkmDirMsWHz16oasEcIluXyBl3Did+CJusE+QEhMDjbkNS9LTm7pKYM/RD/Tv7/Y2iHibPWxPNf08DCAAzHKuMSH4K4KIfHU2xgxq+nkYyFOAPXZvebnb7Yt4m0n2//HgwaZ+dyBXAHvs359/HhjIJr/f7W0Q8ZhkOp4+DTxojqxZ09RFAgiAjEFJm8rLgQe5oqDA7d0Q8RaTYrbl5kJmVmJSTU1TVwnCoE7H6QnDHnoIuJtFjz8OFFNlrdvbI9LKnLvStjfw8oIFMLkhftRjjwW6aAhexCv93mE7eDA0zvV3u/9+cPoz/6qrgJNmd+fOLmycSAtkI23lsWNgDzB+zx6gxFnv80HW7PgX33rL7epERERERKRF+oLXAM6/rZenzICxY8EeZntSEnAH8dHRbhcuIp/HPGtuqqsD+xH73nkHzDbeXbsWMi5J+PmhQ5959L8/LBxRMS0qCiKfd8qWLQNTzdyJE9HbekVasl0UNTYCf2JkYSEcfa1mWE4OzDXDTEODAWutNQZ8bQ5/bd06oMj+aswYt6sWkZC4k55PPgmZXRKj77/fQIlTuSE9HSgyA154we3qRCQsrDP41lsdoL0zIyPD7WpEJKxe8q/PyHCAxXbzwIFuVyMiYfU2HyUnO2fvLBIZ6XY1IhJO5j1qo6IcsN1pX1HhdjkiEk42iosqKhww7xtbVuZ2OSISVh3MW2vWOHBmTN0zBQXAQjMkePcbF5Fm6VEO7tsHHRfXHSgtdWDq2n5rT54E28WOHjkSuIHOekog0sqcO/EbP7ENt98Oaen91tbX/8eEX9bORF9FBbAtZubVVwP5tndODvAKx3btAgqp+PBDt7sQkS+0g4ITJ4DhZt727WAvse9Nnw6n+/t/m5IC2bVJY9599/yD/wlrMHIL/AvPfgAAACV0RVh0ZGF0ZTpjcmVhdGUAMjAyMy0wNC0xNlQwODowODozOCswMDowMPwPvuoAAAAldEVYdGRhdGU6bW9kaWZ5ADIwMjMtMDQtMTZUMDg6MDg6MzgrMDA6MDCNUgZWAAAAKHRFWHRkYXRlOnRpbWVzdGFtcAAyMDIzLTA0LTE2VDA4OjA4OjM4KzAwOjAw2kcniQAAAABJRU5ErkJggg==;" vertex="1" parent="1">
          <mxGeometry x="-255" y="420" width="50" height="50" as="geometry" />
        </mxCell>
        <mxCell id="zaOTciwMg_2Ca42rMOiH-104" value="" style="shape=image;verticalLabelPosition=bottom;labelBackgroundColor=default;verticalAlign=top;aspect=fixed;imageAspect=0;image=data:image/png,iVBORw0KGgoAAAANSUhEUgAAAEAAAABAEAYAAAD6+a2dAAAAIGNIUk0AAHomAACAhAAA+gAAAIDoAAB1MAAA6mAAADqYAAAXcJy6UTwAAAAGYktHRAAAAAAAAPlDu38AAAAJcEhZcwAAAGAAAABgAPBrQs8AAAAHdElNRQfnBBAICw8fVOUnAAAUF0lEQVR42u2deUBU1f7AP2dmcN8wU0NFAfX13Cp31Fwrlx6UimsuuDGIgGukJpq91NSUVDRmEJ9aT0UtFzQ195dLaZYL9HzJDCrmrpA/CwTmnt8fd4YZFDdUBorPP8y9Z7nnnvO9Z/l+v+cgyDNSSikEGA3mKiEhAAwZORJoSq26dYFjvKHR5D3/Ip4OIlBMysoC2VeWiI8HWVxUmzEDApd7zlq/XuQ9Y6PWvPn990EukfU/+sjZr1nEYyMFvXvnQQCmSSk1GnAbllQ3NRVoIbeXLQsg+mRmAoMI+PRTkO3kD/v2gcZLbMvIcPbb/vVQbittSpcGzW3xko8PyFQaDx0KBOIlBIAI+vFH3eNnXJWzuLvj0PAq0ksODg+HwJJeAbNnOyQ44uyq+Muy2vZ30yYwvG7aL6wf/NChANxo2DAPAiBaKHoXF2AY7+W4n0jXr7+2XxsnJ25o1QrkMho2aODsuvjroTQUrQ4dgpE7va7Gx4P4jMlbtoDczUpVAGSsi0seBOB+yGXMSU93uK6pOdCnDzBdNgoNdXZ1/PXQSBg9GtgJ8fHAGLk5PR3wEan2WE9RAB6ZFnydkgKinYhPSQG5l3OVKwNH5eIyZXKJ7y3G/foriFepeufO/bOV+2UDV1fge7q5uuYS4Qg309NBLhDD16wB8YW4uHo1aBK4eusWKO8pae++C2zlUo8e9yYXceLEokUg3lIarVgBls2EV68OYqvmp8GDQUga+fiAjJKzdM6o1zyRnwWVYpjJBL8Huvg0bAjjfqthSEuDaJ3ZWKUKKM3EqMREsgVBrGFdTAwE6D03DR/+8OwN318cUaoUiLD0+FOnQM6RYZ6eatiqVZB5MuO70FAILvP3Ezdu5EgqAAz1fzjaty8gXCseO6YGNGwIdCUmLg4C9J4zQ0OBLfaEtnibNoEhyrTF3R1AjFu+HEDO79AhH+s3TzhhnV56iPa0yG31MVhWcbwvdXiLJ1imckj848IFcK2Q/t6QIRB89O8hN27A2rVSarVgMCQefftt+EwmyVq1QB/YtFlmJsg08dGCBQ7lSBZTPvnEfh0dnZjYpAlE1zVV7tjRrg/RB3rVPn8eMpfeea1XL8heFRVo8rMHEDLGywtokfb1hQtgLG/Wp6SAksVXlSsDwSwuXdohvh/Vhw4FwzlTny5dQFwRFRznGHcjF6Z1r1gR5BzqVKgAYoZYefAg9F5R/7+Oy9DUsealhw4BU0XH5s1B21OZPn++GjZ+PIgSN4NWrgSLpdyUvXshqHXd1WazPb3SWSybNg1QOOzjA8Y3k95Ys0YN69fPLmiGpaaUlBTgO25WrpyP9fxYOGOsso7Rco5Ux+qjD4k/nplubiCRj/UY+b6c/Mor8K+ApCkVKsAQ4SFSU0HZLFZv3w7iB9mxeXOQ5bnp7w8rL1/eMXUqDKpatdnvv6t5ODZ8dN2zaR4eoHxoCe/WDWim3hdn2GRd/ZQCiPI/E1yvHgW84W38GVS11q4e4MABAFb98QcA/UuVgswYyqhdsop2uaVedLRD+paMrlgR0v7vjzU7d4LBYDLNmgXGHqYP5s2zXyvNlJZxcUAzRmq1wELOpKaCyy+i5Lp19uzEZ9pG/v4O+VvjMZGT334LIAZcv+7sSrNRaGarubNqFeB9c6W/P+j1Tb0yM8EQZUosXx6ETtOod29IX581JDYWgEgApUGxXywWoEnWN4qC3WaxR07x9lbz9fYG2ZmBOR7WVn7leCmSuJ6eDineuvmOcxVNmOXkwoWgNBADExKgWLzWMzZW7YHS02HhhjPB5cpB8e4atm5V07Rp46waLIQCIII4kpYGGY0zroeGQvDRpiGOky19oFft335Tf1u/9EiAmNnn33Vzg6x2mc99/TWw/8mMVTIC76pVofTYjH4bNsBivwQ/Pz8YsahOpLVHilyxAtDnTBe6vU7krVtgHJq0KCQEZIpi/uknZ9VmIRwC5GW6r1ljn2xNk3ulTgeGvqbDR46AwWCe8eGHEB1yJrh6dVjslySrVoWst7IbvtdLLz3gAVZ9AbDi0iWgKa4P0j8QwerOnUGXVfLK2rUQM/v00rJlYUl6UsO//Q0Mt02ZERFg8DV12bTJniygt4c4fhzEDNHg4EFn1WYhFAC+1NSwzboBqpnc2/j4AB2o3KwZgOwbHg5KA83Y5GTQva6YL13i/g1v1U+AvNm9OxRbqmnq6gp6vdeHbm6QNSs9oFIlEFpNo4AANYmth8lBV7m8a1fIquDS4dYt0K5QNp4+Dfyb82PGAG+y2NcXPnvdVDmHavw2hxzfJ38phAJg09zZEN20u44fBz7nXEQE2ZrGh/KxaJ2YCJDZt2VL0OtrN9u40T5W2xi1vv7627chYLjH79HRIF6WI1u3BiL50LZaeCA2TeZxPps2DYo3VXpfueIQHiVn3L7trNoshHMAJUk5MGGC2vX37QsjRC2RlAT8AuPGweKPEvymTgWdpuTKHTuATnJNq1b35iOO02LsWAgo/7fA69dhYRfr5Myi6RURASzicJMmwBARv2MHuI5JSw8Ph94taq9PSADjWHOdGTPU5enMmbkU1FcsjY2Fi1XPbRwwAKZ/1kFkZdmDF/sl+JUpA/Illo0aBezjWv7XZiHsAfDBrWdPcKvuvuXYMTC6m0sOHQprYxP8ihWzf7EkyXN7996bXASL2rduQYUdHhu3bbPfL7Ze++2CBWQroLKHDH85PSwMUgeXuD1mjD1+Vp2sptbVRe7Uk8137IDpQm1429wgKs781rhxoPupxJD4eGAf15o2dVZlFkYBsDGVeo0agXxfxsfEQEpqqXU23T8Ae/k1h2bRRikCrl+H3r2FsFjst8UF2e+VVx7wvHp0adbMflmmRzn/HF353XxMoxIl7JeWwGJx7dqBuCjnz5sHhPFizZrOrsTCLABWI41sIF5o1w70eg9x+rRD+L85n5vqWPrJ4W5uML9l8rySJe33xXSxePv2+z9OGSROOIbfufrHOS+vB5RvIicdn2/rcWQvcd7XF9gt+h465OxKLIwCsAqfyEjQu3vN9PWFwNaepf7zH3uwTWXLDMa+9VYu6ZtTsUQJKHM2Y9WgQfbbst3Nr8LDgQhZMywMkExTNXzilxEjIHCM579iYuzxlUMyR/p7sIjxAwbAsklngp9/3t7jBFb07BAXBxdjPY68+iqIT8XLjo40+UshnATKgQxasQLYz0QAgyHxxcaNga2i1rRpoFS2hL/5JtCMCK32Afl0pfXMmRDlkVTju+9AH+jR7MQJNWzuXCAwO+oXjumiSyXN7dwZFCFjVUeX+9go5sqdHTtCZlONa3IyRH1gar1+PSgxls1Tp0KQEMJsBmNDU+XPP1eTdOuW37VZCAWATfJEtWrqzx9+AGB4+fLAm3T39XWIZ9PBr6JFRgb3GmesNgCBwv79YNSah86dC5pQZU9sLNw6XLzGr79CybIZs728QFuWoCFDQOksY1U3eBnr4pJL+Wy2iR9lc1dXIJippUuDkKT26wdipMuqKVOAINVnTwaLj9T3eTxj19OhEA4BNg8cGwEBXuP37VN/r1oF4hPxwqBBUCxe0/mFF+B3fbFltWoBMPubb3LPs3x5u3u75UURcuYMlB6S8fYff4DGj8OnTqm2gXHj4L4N30usMxrh4nKPn2vWhDvVlLJubiAmiVshIcAxkRgZCSOFhzh71jGh7OT4PvlLIewBbK5XSy+af6xZE4QQ4tw5Neyddxwj5ky3uHqCX8+eoMsq6b92LdmauydF9sI7Ohoq7vK4EhQE+t5CKIoaZlVYRUZGco9NwDgyKbxdO5AoqueRUyiEPYDN505pw6zly8EQ9b+oSpXs4TZ7vCHNbJwzx24TsOkHdN4Zg/v0AZrwja2h8oS1q6+4y/PKyJH2SZ5xbZJ8+WW7TWKJa+KGGjXsyWweSDJEnlmyxNm1mRe38KGEXb0KTJNS7yDV4gOh3j+CEUCcU9rExoJchkxIeISMLwkvNzfAiLlTJ/XWg8yk8j3p3749iECXSZcugeFF8/MpKYC3HPv888BKdUy1PC8s8fFqmpUrIatC8WHVqgHHFLOjNVDEiKarVwMTZKdvvgEZKj8uVgzkRM0MiwXEVPb370/25M42xl++khhi0zfcugVsk4d79gRayr5TpoD2Y0F4OBgwTb10CTimRFWpAhxjhvO3zj2Jz90zxljC1CUsDOQCFufYaPKoWCeBtrmATcdvMJjHqz5/Mig0lGxd/cWG5zbWqmXX3N1Ndk/TTNf7wgXgB1KKF7eP8QE3PV+JjFT9EdzdAQPms2dx2ImTz0i8R48GfaDX1YULwfiPxBtdu4L0Ean2ZacODIZzb7zwAoh9lv/Wr++EglqxXJd3Ll+2b2QYkea5be5ciK6ZVMrXV9X4tW79GBlu4sjJkzBEeHTJoRAKkd6ensAi6/VgOSo6Gqb/pDa8TUfv4lLy+5YtoUJ3j/N796pd/PXrYOhi+nztWuAjBrzzDijHWVG7NuCuZmdzDjWcMKVcu0YBdw3TAYcsyUeOgGwv91Wv7ryiaKIwSQmGKJPnSy+pk7tTpyDqmLnj7t0gfoDHEoDdYlu9enYjj80RQ5/h5efjAwZpSmzYEFy6KJsvXwasThku20tuGDEC5Dz5y/z5cPO1pH225WVcHFh8Le4ffACiiUvg1KkwUniMdJzVL1nySz9PTyCTNda5yRvOq9WH1jrQSm5xZsNnY+0qxRbp6lgecVTG3+XH/4jILypVguLfazpt2QLRJ83GRo3sofpAr9qnTsHQWXUir11zsM5VkZtHj3Z4fiBhEyfaN8UGBalewncv5wyGxE86dACtRuu+dSuFZHu8DvR6L+eMUfnFxzR69VVQDktOnFCdPA8cAJEmeqxeDcotJfD2bRA/i5eDg4EwKucw0ljNyW7dk9pu2aKm/+ILIELWrFYNxA1NqUGDQCK7N2hAgZ5X3Ush1AM8Ddq0AVlSftWmDYiS1har8pBEDnqDrl2BseIcgET+19nvk3d0YOhhOrhzp7MLYke0FUGTJ0PAGM8TR4+CZZI0bNgAui6a9j//7OzSFR6ytiuG//0PgO4AhGt7li0LHFccTFo6oDNVX3vN2cV1IE7ZY92p8xxAUErt7snJwGpITnZ24QoV3cHhKJ9k8/sDBgDHHaPkNgQc5saVK4A3M+Pictyf7OMDePNclRzdpQj68UegFx2sxplHYx17VU8YuaRx4/tHszlRak7JQ7m5dhVxH6Zr9pQtC0aT+Z+q/wHD2ra9O1JuArBWHJ8wAfTLPTd+4WAINdYxrxo4EKS3vLRypf1+5tI7/3jjDQjWq27aj0q2YkXouPYAbzhNT+jYEfATwnHTZhEPQ6r61N0PipObAMyX//H1BYNIkjm+aIOywLoe9nGM7nKzmOfAgWAwnAmOiwOLRd6QD7BsarXiOSFAjNeO8vVV19vOrioAjvKZxQLc4db58yA2CyElyErSV6sFyuHi7o7zNHvPhNwEQDBd3UunmB331El9zobPJowXIyIANC9GRMCDnDAckfPkWGe/fo7yZAmXvn0h8HNP4/r1DgG/YQDVC3jSJJDI7bl6ARdKCryiouAgd9H5z/PlY7WB5KcewGo+lWFynL8/iJ5ySOPGwFhxbs4cZ9cGCJ3MXLMGDANNATmGgDkyTKcDoqTJ0axb2JFVZM9Nm/JDAGwuUq0sndq3h8D6dUaYTLDYL2l4QgLoUCgIApC97Rvw8ADZ5q6JTCBej59pQUSM27sXMgZbakya9CwF4K6G1+vrRJpMqnGmeHHQZcm2y5YBsPxB2Shfwp49oDmV0/+giEdkuuaMogBS1jl9GgL0HhsPHgShF0LKZyEA1obXVlQ6d+gAw/V1PjWZ7Dt3Urw15datA7Y9mkuWzTwM1LY5dhTxGNz10egDHa9yEwDr9mixU7Q9dgzkV3K+tzcPt27d9cXbGt72xaes1p7YsAFIlbOfhi9eXjEYrKeJ7Uvf/jQUSwGrPZN37XLe+zwZuQiA8Na0Dw2FgBiPtOhoiKpgGjl3LggwTZiQSx4P6eqLl7A2/FNywnxSZEyaqFYNGMa+p2IDWV2Y9QK59QAbLeetJ1w8ByB2UTk5mXvNnE+5qy/CGeRlDnB3w0fU/jQx0bHhS9Rdvx7YxjAfnzzk/4wJPOJlPHMGOIKx8H65T4vHUQQV8oYvIjceoQcQr1EnORmksLxSkCd3Nv4lk2SFCpBhVF4KCQERKQY0aQKyjmyd63bxp4w4y9HUVKAnPx84AOnfKsWiolSfxAeeNeQUHkEAAmp7HdywAYCDUHDHeNsu3AyjYrYasTa4u4MMzt89d9JuLPPx84MSpzR7+vdXP5i2bQuaIOTBFpA6r+RuHx+gjCh36RLZe+Ky/2Ldo2f9XzX5ReZETca0aepvd/f8e+7DkFPp2Lw5FH9bs7bgKbJy6QGkj0jVaMhxKrYjAUc8U778EqjIxC+/zDWKddu2evYWQP/++fAua8Q59aBHZ+yyfThyBBVbtwYCubpwobNLYyM3PYCBOH9/9Zy7xERgWWaDxzn1WtTQhVWqBPzKsBYtACFjHj31E/CuuhNICDHH8YzfAkMPedx6qliJJ8zpKSLUL1UWoI9GxMkK3bpBwJbazzke4lTEs6DIH+Avjg4sFssUrwJk6NT6lClz+TL3nYMUUUQRTw0Bhpvmjw0GZxfEjtJHzl+0KIcZuIhnhg5YJ3vZDkHOG+q+ABFJp+RkkMGyZ67Hsz0i2uJyxMaNADxXJADPmqcwCbTtCwg45Rn29tvAXq4efdi/gSmigKABrPvy84ptX0BUgim6UyegA5Xr1s17fsoS/lmQlqV/bgQYzpsmb95MgbDinT8PWTs1ni1awKj1HuLyZWdX0J+d/wc1Cnc/6QPEEwAAACV0RVh0ZGF0ZTpjcmVhdGUAMjAyMy0wNC0xNlQwODoxMToxNCswMDowMEQRJ+kAAAAldEVYdGRhdGU6bW9kaWZ5ADIwMjMtMDQtMTZUMDg6MTE6MTQrMDA6MDA1TJ9VAAAAKHRFWHRkYXRlOnRpbWVzdGFtcAAyMDIzLTA0LTE2VDA4OjExOjE0KzAwOjAwYlm+igAAAABJRU5ErkJggg==;" vertex="1" parent="1">
          <mxGeometry x="-34.5" y="409.55" width="57.5" height="57.5" as="geometry" />
        </mxCell>
        <mxCell id="zaOTciwMg_2Ca42rMOiH-108" value="" style="shape=image;verticalLabelPosition=bottom;labelBackgroundColor=default;verticalAlign=top;aspect=fixed;imageAspect=0;image=data:image/png,iVBORw0KGgoAAAANSUhEUgAAAIAAAACAEAYAAACTrr2IAAAAIGNIUk0AAHomAACAhAAA+gAAAIDoAAB1MAAA6mAAADqYAAAXcJy6UTwAAAAGYktHRAAAAAAAAPlDu38AAAAJcEhZcwAAAGAAAABgAPBrQs8AAAAHdElNRQfnBBAICCZ2yy6IAAALpElEQVR42u3deXBV5RnH8e97CFkQNBA2YZDJItIiuBADFrVArTIoRMQmOkNFBJIQKNqCoa0OFAMCZUJIQJPcAG6jSMpiW0tbKIoVCwIFBYKVLNDYokJLrIKRkNy3fwDdtCq5y0lyfp+/MsnNe57nTc5vzr157olBWrmSkqOT27UD26Yu8d57wfyG3XffDRwwr37968Aae8haoANt9+8H+wvzvdWrIeoBs+q552CCiTeffup2FxIaxu0CJNiKvl3VtWtXcDbxQXY2mBgzfto0sAV2TlzcBSyUbwYfPw7mGqJXrYI2V0fcXVgIE2ddtvjoUbe7lOBQALR4xSlVGZdfDmai6TBtGphsmzx5MtgnSImJCeKBkul4+jTwMKPKysB291+zcCFkPXX58oMH3d4FaRoFQItTUlxVecMNwHTenDUL6MfFt90GZJFowvnzLKbKWiCei7ZsAbvC1BcWQlanhGG//KXbuyRfjQKg2Sop3r2rbVuATp3uuANMrn155kywsxmekuJ2df+fmWOW790L/mx/n6VLwXT9MHn1asjMSr7uzBm3q5P/pgBoNgpHVEy7+GKIvtGpnzABWGBWzpgBNs8e6tXL7eoC8vR77wEZzPX5oLEooqagALKze/eurXW7NK9TALimtM+Ruvh4sAP9fTIzwe6zpZmZwHQuj411u7oQesOM+PhjYBCjn3wSsHZKXh5kZiUm1dS4XZzXKADCpqSksu+11wIbTNyDD4L5rel5zz1gi+2CiAi3q3PRQDb5/cA36LJxIziZztj582HysnizY4fbxbV2CoCgm2OtdRy4tPbw1ttuAzPJRk6fDtxK95tvdru6lsPMN1e+/jrYH3OgoAA6dopPWL8e0tKMaWx0u7rWQgEQsMIRFdOioiDyG6ZfejqYrubIj34EGDL69nW7ulZkoRlSWQlmkh29fDnYzjG2tBQyM3uUfvKJ28W1VAqACxa0QRsJjAaVgkAB8KXCNmgjgdGgUhMoAD6j2QzaSGA0qPQVePgXumxN+V2RkVBbG7MoNRXYao899BAwjK7XXed2dRIyW5n75ptgv2avz8/3+qCShwKgFQ/aSGA8PKjUigPgM4M2Q+3WrKyzX7vkErerk2bLU4NKrSgASksrKwcOBP86M/6BBzRoI0HSqgeVWmAAaNBGmoPWMajUAgJAgzbSIrTIQaVmGAAatJFWoUUMKjWDAPD9ozq1Tx+wL5A0daoGbaSVapaDSi4EgAZtRGgmg0ohPOE0aCPSBGEdVApiAGjQRiQkQjioFEAAaNBGxAX/M6jUZhS5S5bApB4J7f785wtd7AICQIM2Is1QQINKnxMA1lprDPh8VbtTU8HMd26aORPsw/bAkCFudysiX4VZZJ7auhX8uxm+ZAlkdowf+tJLYIwx1v7rUf/+huXXvb0sLg7avhOVX1YGLLabhw93uw0RCYpv023LFmizLLIkLQ0m5feaceKEgTn2FRsRAT26Xnbza68B8/ANHux2tSISEsPNvO3bgS0nsr/5TQMlJVVVU6ac/doTT7hdnYiEg6kzd06d6oB5lJfvu8/tckQkrBbbaePHO8D7tO/f3+1qRCSs3qd9//6O21WIiBvsTm51HAfozsn9+90uR0TCqj0R+/c7QJ1JfvZZt6sRkXCye+2+Z55xILaobr7PB7zCsV273C5LRELq3HneyZxeWlLiQFp6v7X19cDQhrdGjgS+xXO//73bVYpIUJ0/r8+d52fP+88ZBT5/z72egw53GjPm7OfGjgWbYDcmJQFbTZqjFw9FmiXTxs5ubAR6mpyqqrOfW7cO/vpG/IkNG2CuMcbvd7tKERERERERERERCZMQ3hTUt7T6quxsYD5vT5kCdrPN69nT7YZFWohoTtXUgBllpuflQUZFQrvgD+yFIACKH60suvdeMN3MLU8/HY6dEmn97HdMzejRwb5teAj+nu88a+y4ceHcGpHWz5TZld/9brBXDUEA2H5mdUNDOLZExEMMc4P/fwFCEQBrbPaKFeHYEREPOPcfhJw8rl+5MtiLh/JFwDcOD01LA7vY3zk7G8xmE9erF9g7bVRsLDCYBzp1CsGB/2Bu/8tfwLzITfX1oevvy9hLWd+hA/B9u6NLlxAcII8fHz0K5gMT++mn7vXJGXtju3Zg87m+e/cQrL+dv3/wAZgNZuWpU+61abvZD6OjgRk81qNHKI5gxv3tb2ByGPDRR2Atm48cAdvX3pyXB1k7E30bNwb9mKHets/yRVeNyMkBW8DjixYFf31ztZ1y5ZWQMShpU3l5+Ps7r3hp9YSJE8HE2EdCcUVk3nSeGjoUMoric1991cU+R1Xek5oK5nYz78UXQ9DnSpN8112QsTOhdt069/osqqwaMWQIOFt4fNu24K9v2/CzKVMga1LiD4uLw9WV3tQj4mEKABEPUwCIeJgCQMTDFAAiHqYAEPEwBYCIhykARDxMASDiYQoAEQ9TAIh4mAJAxMMUACIepgAQ8TAFgIiHKQBEPEwBIOJhCgARD1MAiHiYAkDEwxQAIh6mABDxMAWAiIcpAEQ8TAEg4mEKABEPUwCIeJgCQMTDFAAiHqYAEPEwBYCIhykARDxMASDiYQoAEQ9TAIh4mAJAxMMUACIepgAQ8TAFgIiHKQBEPEwBIOJhCgARD1MAiHiYAkDEwxQAIh6mABDxMAWAiIcpAEQ8TAEg4mEKABEPUwCIeJgJ/pK+Nypv6dcP/HFm0333gdlCxoABwBzz67g4YBPXdu8ObLdLevYMQU83mocPHgSG83pdXSg370tcZIs7dwZy6Nu7dwjWf43jhw4BvzPf+fhjF/v8CYmxsYCxKxMTg7+8yTE/ra4GG8PG2lr32jT1Nrd9e7ALuPGKK0JzjJoaYI4Zevw4sIPU48fBnrJX7d0LESts+apVMCk/aWllZdC6CnyJOdZax4FLD1avmDcPTB0Ns2YBf+QWR1cYIkFi0s+cAbBrZs+GzMzExIULA14z8LJ8E6r/kJsLdrDt9sgjbm+SiDeYGabPD34AGScTGvPzm7xK0wvw/aM6tU8fIJao8nKwxXZBRITb2yLiDSabnXV10OaxtnuSkmDirMsWHz16oasEcIluXyBl3Did+CJusE+QEhMDjbkNS9LTm7pKYM/RD/Tv7/Y2iHibPWxPNf08DCAAzHKuMSH4K4KIfHU2xgxq+nkYyFOAPXZvebnb7Yt4m0n2//HgwaZ+dyBXAHvs359/HhjIJr/f7W0Q8ZhkOp4+DTxojqxZ09RFAgiAjEFJm8rLgQe5oqDA7d0Q8RaTYrbl5kJmVmJSTU1TVwnCoE7H6QnDHnoIuJtFjz8OFFNlrdvbI9LKnLvStjfw8oIFMLkhftRjjwW6aAhexCv93mE7eDA0zvV3u/9+cPoz/6qrgJNmd+fOLmycSAtkI23lsWNgDzB+zx6gxFnv80HW7PgX33rL7epERERERKRF+oLXAM6/rZenzICxY8EeZntSEnAH8dHRbhcuIp/HPGtuqqsD+xH73nkHzDbeXbsWMi5J+PmhQ5959L8/LBxRMS0qCiKfd8qWLQNTzdyJE9HbekVasl0UNTYCf2JkYSEcfa1mWE4OzDXDTEODAWutNQZ8bQ5/bd06oMj+aswYt6sWkZC4k55PPgmZXRKj77/fQIlTuSE9HSgyA154we3qRCQsrDP41lsdoL0zIyPD7WpEJKxe8q/PyHCAxXbzwIFuVyMiYfU2HyUnO2fvLBIZ6XY1IhJO5j1qo6IcsN1pX1HhdjkiEk42iosqKhww7xtbVuZ2OSISVh3MW2vWOHBmTN0zBQXAQjMkePcbF5Fm6VEO7tsHHRfXHSgtdWDq2n5rT54E28WOHjkSuIHOekog0sqcO/EbP7ENt98Oaen91tbX/8eEX9bORF9FBbAtZubVVwP5tndODvAKx3btAgqp+PBDt7sQkS+0g4ITJ4DhZt727WAvse9Nnw6n+/t/m5IC2bVJY9599/yD/wlrMHIL/AvPfgAAACV0RVh0ZGF0ZTpjcmVhdGUAMjAyMy0wNC0xNlQwODowODozOCswMDowMPwPvuoAAAAldEVYdGRhdGU6bW9kaWZ5ADIwMjMtMDQtMTZUMDg6MDg6MzgrMDA6MDCNUgZWAAAAKHRFWHRkYXRlOnRpbWVzdGFtcAAyMDIzLTA0LTE2VDA4OjA4OjM4KzAwOjAw2kcniQAAAABJRU5ErkJggg==;" vertex="1" parent="1">
          <mxGeometry x="-30" y="190" width="45.5" height="45.5" as="geometry" />
        </mxCell>
        <mxCell id="zaOTciwMg_2Ca42rMOiH-109" value="" style="shape=image;verticalLabelPosition=bottom;labelBackgroundColor=default;verticalAlign=top;aspect=fixed;imageAspect=0;image=data:image/png,iVBORw0KGgoAAAANSUhEUgAAAEAAAABACAYAAACqaXHeAAAABHNCSVQICAgIfAhkiAAAAAlwSFlzAAAOxAAADsQBlSsOGwAAABl0RVh0U29mdHdhcmUAd3d3Lmlua3NjYXBlLm9yZ5vuPBoAAAiSSURBVHic7Zp7cFR3Fcc/526yQcK70OFhKtkN1oI4aJUZnaqttAVbBspDpkjbGSxk01LRYYYymdo2o7WWqlWpktyNlj7sVOgDQzUCPmoHnRHb+oZCk92AjDyqQKlAapK9xz92Te69u/dmb3aTlJrvzJ3Z3/n9zuN39nfP73fO78IQhjCE/2dIwRLMxCWIzMLSyQgTETmLxXFCHGZ0+16Wzegogp39hr45YPPhsYRSt4MuBj7kM/JNVHcCW6ip2tknXf2MYA7Y1FLGsNDnUa0FxgXU9QKGrmd11SsB+foV+TvAPDgeQs+AfLIAfV0oX6ImurEAGUVFfg7YnLyUkO4GLnH1KPAK6A5UWjGMo6g1ApWJCB8H5oNelK1VHqY6srZQ44uB3h2w+fBYQl17gWmunl8gxnqqK//kyWu+XApjVoLUAZOcnbqBWNWDQQ0uNvwdoCrEk7uBq23UTkTWUB1pzFvLIy0T6DCezayK/8FC9frBDo7+Dognl6G61UZJAQuJRX8aWNO2fWFOle1AZK6N2gKnZxD7cGdgeUWCtwPMl0th7H6gqpumxtcgdQDDuBhLQ8E0yTngBPBVUNvrJHcQi3wvmNnFQ4lnj4yZj9onTzti1YKAah9OEJqRqx2onVm/AAyaAwzPHjUWOtrCu4qiUSXsokwj3jKjKLL7gNwOUBVg/oBZYRkDp8uF3K9A/LWLoCR7/4YESD2qr2IQ8Iwv41CuA12RpVe4NJis4iG3A4zSyVjqpAnNnA0vZV1FewH6thFv24JazcDwHtlyWQEyC0LuVyBlvNvRFjmP8tkCJ59GdeWLKHc7aJYVKVhuH5HbAaLvcRJ0H7HomaJpLQk/6tRnWw0DDC8HlDvaqieLqnVVxSkQq0e+BDtTFBEeDpAWZzv0avFVa08QFYq3ugLCYxvkLSfB+mfxVcs5W6Mf5OcHj4OQlXI0VbwPTH2G4yhteQ7rZ+SemCXOf0R1QlG1btsXBkbbKCeKKj8APF4B65ijLVQUVevpcAWObEKOeY7tZ+Q+CJ2I/otJyTP0/EtXUvdCCXVXdRVFqxrXOJIptVq7f8dbb0SlFmREDk4DdAIQRnrJxlQBaUf0JCqaY8BJ0A25HVAnFvFEM8ryDGUck6fOAXb5a80bn3EZm64vbGoZhcqjQFl39ugF7aU/PagUZZSHrAjIY97BzdImF+HLmSSpMDQkP4HwKRvlMDVV6bLacLkYKCtYR/6o8HbA+bIdwJHutjKbeNutBakzjw5H9GEnUTcjuZYoAP8GSfY8etbV34VIp+NJV63sOO2U4dzivR2wrqId5V6Xsd/FTFzhyeOHOjXQ81uAD9ioRwiHNnkz6VZikWj3A9sd3V0aoToSdjzoNS4h33HIEPmdvdN/fx8XeRxVO0MZsJN4Yokvnxs/ODCSSYntiCyzzw6VdaysfMuTLwviDMJilWaPMVw08a03epfEAJZJCvPQYki9BEzJUMtRniaefALVu4lF/+7JryqYiWV0GfeDujO+jdREnvHV74bIfkfwKwk9hZl0leXVeXEj/M1PpL8DAGJTj2G2LABjFzC+W6zqLcByzOQvEX0e0QOk9DiGUY7qFOAKzMQiRCJZUVh4iqORu3rV7YbqLuABIH2KVGaDzvbheIOO//zWT6S/A+Jts9DUUjCuA821L5eCzkOZhwqIZOaa2Sy89gzlaiYmmzCTTYRKn0tnh3kgFv0rZuI+cMcmDy0ia7njMt9MNncMaGiZjtnahFp/BLkL9IPAsLyMzA8TEOaDNpLqSBJP1GIeza8mEIvWIdwEHCT3Bp8C/oBwLdWRJ3oTl70CGhIrEeoZuP14NMr90L4cDa3NKy+qjj4JPImZGE0q5axdhkYcJzb5fL7KnQ4wE/cCdTnGWcBfgCOoTkVkpq3vN0Dus7zyMaQ7eIJqEyLloNNBJrtGz8SynsvXcIBMlaqgWkKPA+LJm1Gtc/W/gfAgIo+wOpLO2MzWO4Ge621hI9XRn+SUHk/+OBMQM9rKPseqilOoCg1tH8HQWuAGG8fYQibTF6Qd0HioEisVd/XthdAiqqe6/13ne2dppad0dW19HZlSc/rk93tgEfHEEpTHgPIs/gFAOghaqftwBrmXOBe+iljW5LMhcjsPHcm+NYq3zQVmZjO4UB19FsuaDxTvgrQ+ORsz8S0akkt7G2rQeKgSuNFGO0eXLglQAn8fIzqbaWiZDqQvVeOJFaj1o7wNvm3ar4F78h7vh4bEHAx9Efgiok9jJq/1G25gpW7Avh0qm1hTdcSbJQdUr0SMfZiJ12HsGZQfAmMCyQgb30ZclSHBfY/oj/rkbITt2FezqO+li4HwaadS4/FASp2YAH28RE3nBM7vDlSmZI2rb30/8eSCrNeuoWU6Bs3ASJuAo3QaW/GBgWIPYseIVR4IaLpfZSKfqkUPQs5MDbVPBmhonYchf0a1ifKOPWxpS6+y+rapiLHb9T3SKSzmsqbyuJ/KEpzf7vwjkMFpI29FdDzKHEQqgHPAQZTtGHILqgt7E2GT5TTWfWMksoCe1/VyOrQZs+VmsHYC9tVyFsO4nlilbyIEaQf0bD8i7oJD7xBeJ1a1Bfh6Vl9D4qZgH1Ko8wSnOFNblZ8hWkN3lqEfBWM/OGJFByqLWV3pXE0e6Id6fz+iJvI8yHoX1T75FCorqIn8PF+RF5YDAGKRb4J8JUePgtQErTFceA4AiEXuQfUbTqJuIBb5flBRF6YDAGLRO4FalF+h3EasKjsG5YHeK0JvV6TziQcyT59x4a6AImHIAYNtwGDDGQNUR9LYerkvh4XrAyqqPHksV0IU6pxFY+ubnrJT1nsd/4kwrFd7gsJSx/FaMBPBzuvvMBgM4tcZbwNYBuiewbZi8KB7SkiVLiLUuQqRXJ/GDjyUUcAMhJPAa/2nR0+SKg18chzCEIbwzsJ/AcPpxEo4uhSkAAAAAElFTkSuQmCC;" vertex="1" parent="1">
          <mxGeometry x="119" y="180" width="50" height="50" as="geometry" />
        </mxCell>
        <mxCell id="zaOTciwMg_2Ca42rMOiH-111" value="" style="shape=image;verticalLabelPosition=bottom;labelBackgroundColor=default;verticalAlign=top;aspect=fixed;imageAspect=0;image=data:image/png,iVBORw0KGgoAAAANSUhEUgAAAEAAAABAEAYAAAD6+a2dAAAAIGNIUk0AAHomAACAhAAA+gAAAIDoAAB1MAAA6mAAADqYAAAXcJy6UTwAAAAGYktHRAAAAAAAAPlDu38AAAAJcEhZcwAAAGAAAABgAPBrQs8AAAAHdElNRQfnBBAIES16GV4YAAAVj0lEQVR42u2ceUDURf/HX7MLirekouKBsgRmHpmaP1HyIhMTrwqzTFGEBa8nJPNKQTIVFU9UFjHNvPLWNLNUKK80U5/STGXBI+8Db+Ta+f2xLN9FYQUVl+d5eP8D3535znw+8/nMfOdzzEAxilGMYhSjGMX4X4SwNgEKQqWUKhU46hL17u4gm4uAt94C1TA+qFMHZBW+qVIF0MlmN24AGxnyzz8gJ4qdu3aBGHuzSXw8aAObNU9PtzY3/ymwogKEyjhpYwOO1WvpBwwAflSFjB8P7JczatR4igZ/ZfbNmyBWcioiAu69VuKtuXNh+K+1QlJSrMdn0YYVFGBRxLkRjo6QcSS958aNQDscmjcvhI5aU/n0aVB3UB/v1g0GXq7jfuLEi+e3aOMFKsD8+ad6OzuDurXNg19+4eln+lPg9m0wOIo7HTtCkLdzk4MHXxzfRRsvQAHmdDo9pHx5KFlJvXvfPuBNuf7VV63C7deXLoHqmOHmG2+A/9yXo/75xyp0FCGoCr+LEjHqQ+HhWFPwJvSrXh0M89Q75syxKh1FCIW4AsReTHzg5ASZl+TDkyeBQySXLGlthhVIR9nM3R0CvV2S9++3NjXWQiGuAIZa7OjThyIneBNEK9VIX19rU2FtFKICyJfk7C5drM1g3hA1Zc2uXa1NhbVRmHsAb3HOyt98i5AzaVmtGsQGn4986SVrU2MtFIICLL18eXuZMkAL+UO5ctZm8MnIdEvr9qLM0aKHQlCAW753v8vIAKLRS2ltBp+MTF9Vj7Q0a1NhLRSCAgz74eWo1FQQJ8SymzetzeCTUXJ26r8uXrQ2FdaCTeE1LTtL7ZEjxv89Pa3NaC6YIlolJIBfUr3Ld+9amxhroRA3gSJelN60ydoMWsBfhG/YYG0irI1CVABVP9tdK1YAczh965a1GTWH6JWeDiKNrbGx1qbF2ihEBRg4s1bIzZsg9MyaPNnajCqQ3eWwhQshoILzplOnrE2NtfECYgEVlzpvi4wEMUu89v33VuTVQ4z96y9I62c4OHq0FekoUnih4eCzZ+3tQf1LxsXt2ym8PIBHkbXZU+8l0dMTBjo6lz579sXxXbTxAlYAEwYNcnJKTob7Z0rsa9MGxFKxc+nSQuxwm/Ddtg3U3W1HtGhRLPjcUQRyAmPGJGxwdwfWiEthYSDbkNi+PdCcILU6Hw2YHE6rxcpffwX5kbSdOBECD2pirPrJ+Y9AEVCARxHV/MTcSpXA1q9k5/btQZyjpJMTkETLypVBtpXxJqvi3DmwuWUbHR8PfiNrT/vfdegUoxhPhSK4Avy3YMFbegcHB1DfFukeHiD9ZK369YH3xYc1awKr5TF7e6AHVVJTQfgJj+RkMPQxOJw+DbKZmHj4MKh2JH9x8GBhpbsXK8AzY06n00NKloQSndT3+/QB1QxW9e8PspLc5O4OBKIRzzDOYohwuXPH+OlbuxZUPrLG/Png7+/i8vvvz0p9ISqAaWBsB6v9GjcG9XDc3NyAwbQsVw4MDeTA3MLF6k2Gk8uXK0mbMW8k2r/7LhgmyXAXFxDvU/PqVdAma3osXgyLIv6OLVcO0pvapgwalAuLA8SNe/eAsYaR9+6BdMTx1Cmw/Stj2rFj4Dey3sCCxAKklFII0H2hj/74YxDdVT9MmsQLzXIGYChHtmwB9WC5JzgYBs50mZWQUNBGnoMC6KIP/WZrCwyq+E/PnsAF1cEePUDUZoqXF8gomVC+fAFIek0GNWgAAS1cfjx+HHQJ+vCffwZ28tGbbxrrnDsHWq1G4+Sk5B+kbLrvcu9egZjvlZ4O/CTr7NsHopNq2/LlYNel1PoVK6BvtWpv37+v1DYpWkZv28Tly4Ft+Hl7P/v4PTMOcvPhQ2ClOOLvD9oHzgHLluV7DAreX/YMSEtc1aMHCD/qTp4MeFDF1fXZ+bE9Y5jp4AADJr8cde0a6KL1I0+cAAQB9eqBGMTBlBQIyNT0Ll1aeU+n03+RJbAPzX/P91D8S0y4cQO4wm13d8VVvND1TErduiCTDRU2bwY5UZ5o0CAfDUYRfv8+sI0F27cD7mLqrl0gNGLd+fMge+Fx5QqIf1PJzg7oLuNr1gTZUf7y8ssgqovhXbuCnCCHNGlSAD7iRduICLiwou65MWNgghDCYMizdv4bXiyTZMWKkHZWDl25Etgugzt1elox54LfWJCZCfYdnaeVLAk+PkJkZkKMXWLf69dBzpahlSop1W1upceVL68s4bo/9TOSkoB9dKtTpwD9NuVHgwH4Xd739ASt1uXTuDhY8N2pl2rUAFWI+q2DB4EQJjk6Whj4YPZfvmxMNQsPhxIBKufFi6G/qCsePnz6YdHpTg/RaIANqiOhocBE+nz0EfA7HVUWHHnyI9FzyRLQlql7dMAAEEKIxxN08pEPEHM7sZurK6RXMny9eTMwmWA3t6dnKE8MZeyNG+DT2Ch406dF6mRybjl7GRXVRx0cjP/fvQuiE+WuXgU5HgqkAEPF3unTQbtfsywuDmb83/nIUqVA5Zrmv3EjEMI1S4IHQmJjIb3zQ5vgYBisfbXPvXuANkuA0fqEhg2BeWKWtzeI8jRycwO5nD8cHIBhMiEtDXiHeRcugKgjfPfuhQy9etn334NW6+Sk1xvb6tsXdD0SbsyaBeIz1dE1a0BOlZ85Oz9OlFgu1/v6gq6B/pLp/YkTC6AAphkgm0u7uDhgMh5PGIhngvAUVa9eNf+hytjKlYHAjAW57aKlo1huUgC9HuR42l+7VoD+QoTr+fMgI+0GTJgAZJ0NKKtOLxcdDTKea82a5fJi1oohtnNk+HAIGKvZOHu2UqzTJUxv1w6IE60iIgCBaN4cGCKDAbIn4XY6APDOI3ydkUuCgkCty3wtLQ1iuiSu1+nApmHmri++gAFal6jDh0EXffKTFi2ADjbL160jxx4pB5+LxYywMFiQoO8UFwdBLpof9u41leayhCgzQH0mawZMKkzBZzM+ES9zAcorhtImAeeKGDrlKO9JjRwK9KT+ItkSHg5arePCBw8gpndiLU9PkH1lh759LbzYXxwfNw4CxmpiZs+G1aulVKtB11q/a8YMANFj1y7yDnaZPjnfcHbmTBBfigaKQMwwSB4qUQKkt2w8dCikb1B/e/w4LOyYOMTDA7SBboHXr0PqEMNVb2+yo52PIculrtrJvAULlFPZRuSiAGX6p1+cMgXIawYUFrpS31yAqhPy9ypV8q4uuqj6mpeLYeLlfCnAfm5cuQKpGzK3fvON8rNsK3s+vkSata/ju7VrIeCPunMnT1Y2wzffTXxlxQrgY5yCg5/cveiGzaFDoN2jaT98OMixBqdhw/JBd7D8tUoVMFxh+Y4dENMl4YaXlzEH884dYHdm5a5dFb9BbmjYEGq4OqX07p09ykphbHDCJy4uAPwcFFRg8T0zhD/NzQUo28p4iytAFFvNy2VbxuXrExBFk5UrleRVXbQ+oXVrAIa1aJELXVlWh2hlSAgOVjZTusNJHcLCQMSy1ccn/3zKw/yVIxFFii3XrwN7iEhKykcD2SuDuLVypbJH02pfjtLrwRBvuDBtmoX+v5NzQkJMT2YKkPmZqpRxBshvbW3zz9DzgvSWYTkEOJW/LSmA3Moh83IxnT75WgGWcXbdOrN2fHC3tOTLe+JuVJSZYyprwMUh7uQrseSA6HT3rtE8e+st0FbVzPz4Y6VYG6hxOXcOLi511rm4gAjFJzCQbKvIEipUAJlMLfM9SGlN2T9nziR7pXsMP/N+48aw8I/EmEaNVIp5x2Z+6tnzqWT3XCBCsc2xAmzmoiUFUL3HyRwKcEHMe4ICrHjwAOztH44yvx9AVVvcsGTOGrrKz83zFuQqOSM0FPI7UcT3svyIERCw0vn8jh2K4yr6ZmKctzfEBCWNa9NGqR9wWfO7TgfMFa7GPcUTkGWOm1aybAfWbGLXrs37tcyrMtXLSwVpMYbEzp3zz1ChYQ925gIUe9hqaQ8ga8ot5uWGmZmLLH4C4vA8fhx8er26Ni0N5tsnbKhVC2SkPFWrVm4dCD+9HoJ+0lw9dkzZHBNFeLdu+WcrrVaar7kgUu7dP/D99yDWyNqbN4N8zeAbHw+OMUkBX31l9uJSw4xVqwowfivp2quXGfkNRDNLWdnClUutWqmATSKwKLg05Q6+ziHArTy0uAc4wE3zctUx6WlxBWiHw+nTZvXLqq7Vq2ehvpCLDhxQHktfSC/XujUwhPFlyuSfL7vWZdPMHTCio0jP1TP3m6zQpw/omuh/DA0FvETPsLACDOB89r/9tlk/Y2V7izehjKGrm5sKmE6lRo0K0FEhQfQWITkEuJ90SwogkrltXp5yGq5dI88jaeI78e8bN8yeb0DVqhYIkvhdumRW/3NqOTkVnK8Mp/RjPXoozw9dM5ONnxxxyt8feIfq69eD+FpE3r8PBKIJC6PgsYaHZNaurVgn2kCNy+3bKC7pR8fjW9GyWjWjAvye6xL4gqEKs33z+nUzAhG7y5bNu77cI5aZl2cfSTsm3s4tuifXcN3cJSvmiOBSpSwQJFhkTo/UyARzV3S++RrBkhkzIPoNfUDnzgqdWq2zV2wsaGtqSr/7Lsi5Nw9Wrmx8Z9AgYL5oVqAzi1n3MMz1ShiaI8r6AB9zPrL56SdDypRRAYPk8IIsaYWFTLeMKeZ+B6k2/DV3bt71ZUn5rnm5yYyVDeT2XE8lp8lD5kEiOUzOtHh9XF+x09wFrTqjGvU0Zx1N0VDhx8itWyGmdmKpPXsgxk7f6bPPIDo8qXvjxkrCh1ar0SxYADJSho8fX4COshRm6DaXuTkmQBvxSa7H3w1i04MHKp4YVHhhCJN2kyYpF0baz9FoFi0yFv35p1m9LPPGdku6MD9wkhkiJkVEkGcChrSjXcWKyrMKcdvSplGqZDlzD6ihY6b/+fMF4Ke9mLh/P5TqViahbFlA4hcZCXKsPNaqFcjZzIuIAFHVEHn0KMS8rp+1Zo3yutpBlFyypAD9BdH4/HnFT2EKX+d5TD+Ou1euFAXBmzBBxjdtCtW/0Ef36aNEA5Gq//v0U6WaaK1qN26cEgXMNqO2csmSGSv6Ucc8XJ1xn09PnrRQfzFHmzZVnkuXKOu1e7fiGHoidhnj9CazrFT3MqON5iNzzDeXJsjV3DHf06T6paZmZOR/+MR6/vrpJzP+KtrcsujJHSX3njxZlBTAxEhWho1Od9G/dGnQBta99uOPxrIpU6Bi+Tr3vvpKWSnkBrkkMjIf7a7hTIMGiu8+SNQVZ84AkYzJNZs4K/9g/sOkhm5uiiClFzXzl24uZ7Rrp9j72fa5TO7j4QFyi/y8e3eQJ1n04YfADj40v7LGdmCJzgXxMIozEvMVRHqp1lo0V6PEzH37BOh0+qJ5kUM0+rAw0B7RdJww4fFinS4hpV8/AHGxQEulRBqDKRqXPXtAd03/8KuvgPVc6N8/l4H9VVyZOBECFju7jxtnTPZs0ABUTvQ9epQnn19oLgbfuwdymXw9IAAuRTp/+e23eSdqLHTVO7RvDzJJXNuw4ckZVSJCLImPh4BE5y/atTM69uzsIO1P2T0hAQupavKdpk2f6wqQlWIVTO/t21FSlZ4WGSwfMUK5WtaE7CtoWqo++PLLgjcrPXHJMTPWyyjzoNBj9YcS/sknRtdp1aqKY0iOYvrMmfno8Dc5r2xZEG74rVgBjt6Je1avVopN/Ol8Epvv3QuGEPbv3JmPVLos805+JvuZB5PSx8oLQ4aQt+CzooZarcvfhw8/TwVYIR/odKB9oDnYqRMQS7OIiGdoL8vhkrkuI3b6dGXJT6nw4GxoKE+dhCl2Mv6jj5Sk1YAATUh8PIhQEWW60CIHsgQog2DqVOXnlw47y1GjyD6Clm8cIMyc7rTU1JSqVYEOcpW7ez7ez4oRyKbC0dfXuJL9+aeZZ9NHbhgzJu/X5Y+UUlzMz1EB5AxRLYeZpKPq87giRvrJQ717g2OjRN87d4ClssOIEc/UZL/q1aFkDzHtgw+UXbOhtrz/+ecW6MjKE9BF6x2GDVM2qfa9U6p27w5iFWtMVosliOuiUrNmoNPpG40bB6qqqrQpU/JH+O3bIC7L0d7eELjEefLatcpeST1FFb1xI3CAzvb2ufQ7mt0nT4KwuzlIiW0UwU1gniigC/ZJENtFhLkHNPssoSTUfDP12HtBom1kJMSs1r/n66vEFgLiNKMGDlQ2d3xJcG63k8toOTkrIWNDeDgAIzt2zKUjU+IIYsrXX0PmKPlHw4YQsMWl0rZtyh3MbHv4tzHWIOe//nre7YjKfDZo0KMHTArxjqD/VNjcTm/r5weZ00u88sorj2cBZwswGRYvhpie+gYNG0LFXg+PjR4NPr1cVm7aZPxkffcdVNMnerVsaczI6dIF2Mrg+vVRXN1tsE9NBbmcd//5B8QS3ti7FwyXMsdu3gxBWtebFy4AsBBAp0uS9eoBHrL3unXAbrmkfv28+ZGlsImIAP9Tmqu7dj3GrbWHu+jB5F9Y6HompWtXkBiygipymclVaw75Nh8PHw7JW+wievQwWlWffw72a+Dbb8HHJzsHT5Nr6tfa7L+5Bm9Nm0+Dkzw0bhywSjYPCAB2W47eyoG8s3o1XFI5n8j6tPk/XqtYAbKxsHTStLffVhxE/qKOSEqChS0TYzp0AMN7jNm2jbxzJFszsm5d47/Ll0Py+CSHWbOMZuaWLSDchSEuDgxL4OxZMDQVLa5cAdVUNHZ2Ro9gzZrGZFVXV8CBMV27gmGOPOXhATRnpNHcfILN3p2oZctALEz+ZsAAmBBo6VxAsQJkw1DS4OLoCOpKfD17NiwcenqIpyf4N3IO+OMPY5b0G2+Aqq/6g5UrgSk08vCw0GBWDp/JvyA/lfTvD+KYsVh9TG4E4JGIpIyUBbq5SASK0RkZIN0MK8aMgYAAzYzp00EE5nYO4FGoeHZ7/b8McjIebm5gaKAK3rtXcfwEeRu/xfY65+7t2oFIET0HDwYQfXKLthU2TA4guUBOev110P7tYjNtWl4HQPKCClgsPi6QHfs/hNq1QfUeQw8cgJjYpDL+/vD++2AwQMAnzv+ePx8yfkqpUbcuMJW/TVnBOYJXzwrTBM2yTgwBBud27RTPn8kP8HSwgdSOmZ6+vmAXr2576hTIttKrSRNgO/0KEiUUGLYmJgJgjLILufXcOWC7uLxjx/MUy/OBoTN2p08D643PqlRVwsWLYNhucHiE3vZg3Az6+EDMvMSfHB2NKWJTp8LgtbVCsg6lrp01C9DCrFnKmULDtcwf2rYF+Rs96tcH6lKvdm0Q5ShfoQLgyUupqSBuiJ63boG8wx8nT4LcarA5fBhKdzMGofpWq7YsK2Ek30c/i1GMYhSjGMUoRjFyx/8DTTUuwVL/NvIAAAAldEVYdGRhdGU6Y3JlYXRlADIwMjMtMDQtMTZUMDg6MTc6NDUrMDA6MDCnmFJ+AAAAJXRFWHRkYXRlOm1vZGlmeQAyMDIzLTA0LTE2VDA4OjE3OjQ1KzAwOjAw1sXqwgAAACh0RVh0ZGF0ZTp0aW1lc3RhbXAAMjAyMy0wNC0xNlQwODoxNzo0NSswMDowMIHQyx0AAAAASUVORK5CYII=;" vertex="1" parent="1">
          <mxGeometry x="351.2" y="180" width="40" height="40" as="geometry" />
        </mxCell>
        <mxCell id="zaOTciwMg_2Ca42rMOiH-113" value="" style="shape=image;verticalLabelPosition=bottom;labelBackgroundColor=default;verticalAlign=top;aspect=fixed;imageAspect=0;image=data:image/png,iVBORw0KGgoAAAANSUhEUgAAAEAAAABAEAYAAAD6+a2dAAAAIGNIUk0AAHomAACAhAAA+gAAAIDoAAB1MAAA6mAAADqYAAAXcJy6UTwAAAAGYktHRAAAAAAAAPlDu38AAAAJcEhZcwAAAGAAAABgAPBrQs8AAAAHdElNRQfnBBAIFRBGHdcNAAALqUlEQVR42u2de1RU1R7HP3sGVHxLZWb54KEttev7idoVgyRdSSWadm2ZJQ8NRdGlqRVlmdq6PkhUBnRZ2UPFVRgmahYkKWhm6go1YUCt1bWbF01TkJyz7x/DAZSZgUFmxsHz+ec89j57f8/ev9lnzz57/47A4WzdKqVeDxcvFhR8+CGQwKLQUJCHCUlNBe/tvuMnTYJx44QwmRyvp65IalqgnzULuI7yxhsgE2R+8+b2pyOihf/lyyDbyx1xcRBp9Bu1apWz7kI4PguDwWgcNcq8v2NH1XC5gWWjRkHUIb+knTuddeO1572QvOjmzaHhQ7pGRUVAP6bq9XWQ8PesM5ng+q9Kibc3zNjVKeHyZUffjc7xBSZaMe+++2xImENR69aO11FXtJlcer6kBMgm6MqVOky4zJA80z1We3s7626cYAD1jXHPdttWWgq6B8WO0aMBxKupqcBuzu/dW2m7mFknT7pabXV4uFqA+xK+xzchKwvYA1lZAHwKsE4Wyo4dQfeTMiwjAzjgaqW2qMcGYEg05rdoAcAbycmA4OFRowDJz19+aT4fHg6RUX7+f/5ZB/kZ8qL9/EA0kx4ZGSCXc7pdO1eXQnXUw0fA+ln5M/39gXeIzc4GBG+OHQvAc40bVzouCy+PX0vKK362fp254qXlil8r+paWgphP1s8/u7qUVOqRARgSjflDhoApXffxgQPAQlZ26WLjgrJw0yWhHDwIyZ2NrYcPr3l+638ruNahAxCg8927t/qKl+2VkHHjQDknVmZnu7q0VOqBARgMBelTpgDrRL+vvwZmyRxb/zqqMJAYb2+QeWLY7t2Q5F3wY3S09ehqxZv+JxMzM4EDhHbsaCHiLRUfleb/6fbtri6tW3FDA1AHlhLPFQw0D5jIzsnJwDR5uEEDCxcksOjqVZBD+GbJkorjW5GJcomHB8glsvnq1RXpq/mpTb3SmWZZWVRf8Rl8FhZmoeKvytnXrlm/v4YLbky3pM8xuJEBqJ26i/0Lp+/YASJdfhwTYz2+mC06//ILKGOVZkOHQlQ3v/AFCyqO1XCr15elf2lhwbr09Jo/48sr3ts3MC2tajT927rnN20C+omX//qrUoAkLiUFXlzSKeGPP5xVqm5gAOXPWrVTt1vOCgmxecl7Bw/C3yHiRv/+MPX1Tgk//lgRqB6r4Wp8a8g5jAgOvv2KVwlf7SNycsAzxeTv6wvyd93snj0hItJ307PPOrt03cAATP5ymMFA9Z064JNPoEGEbtWwYfDyNh9x/rz1uGq4Gl+9vsaovfp9PDpmTPUVfyvqLz3qdZ/UY8dACCGkdHbpusM4wGjiLQ6NJmKUEsRxUfLaaxB+w+fJd96xvyAnCx9RUgJSSjlxIiR7FKadOAGyu2z01ltAFH6i8juTWyo+ooXvdkvvOAyG38IbNwad7tq8Ll1AURovO3kSIiPbJtvqAzgXN2gBlE+VgXPnVnpmf8eywkIQKbw5ZgxEmHxHL158+78g9fry9MrSBzh3rmIr05RJoaHWK37t2rNnW7UCZEne8eOgKEIcPgwsLUk7dgw2ykLZsqWrS1XFDVqAqaKTyMw077dvD2wiCYBNjs03wt9v/+efA+BXtq0RHn2UScHBII/KDX5+lQJekfv9/aHUQEFwsPlUSopTitAGbtACuB1nlXsbN7YeLLzlvCZNXC1S5S4wgMRFhU/16FExgSP5eEFS9+6uVnWnUI8NYO3a0xN8fUGcVRbm5Jj/xq1YAUq87GUe+j1T7OPjapWuph4bgH6OR2BAANAf70aNKgWUHSu/KpsGD3a1SldTjw1AvC/3eHjUPvzuoB4bgEZN0AzgLkczgGpRJ4yobwPrF5oBWMWQaGw9YwaYMsXI06eBRN3ovDxI3Jz/3fTprlZXV9z1nSAbPCqGR0YCQt70LkB01y2MijLvr17tapG3i9YCWMck+1sc0bN23i1xAwPYuiU3rEEDSGpf4PXii2BoZfx88mQwJB7+3tPT1ercHTd4BBQFN9qXkABiofwpPLxSwBbv2AEDzLtqk6xhL27QAoitoqvF2bqFHHzsMVerc3fcwAAYLEdbXHz5hZyrjeTdLu5gABoO5A74BckiGo0cCYl7javvv99CBBOULfG69bxnixbm6+bNs5BuPgf79MHqEvg7LV/dN+JpkwnEeHbu2QPh3X0jjh93dOk7wT9A0lZj2AsvgLzIso0bHZ+f23OIopIS0GXpH+naFcJPd/QqLHRUZs54BHTQXbhzJkG6AWWvq+VOU1DPno7OzAkG4NmfjD17gKVicH6+4/Nze8rKydNP911GhqMzc8IjQGXFwF+We3mB10elX/XuDfrXRK6Xl/Pyv9MxvSW7FRdD8cQGwUeOQGxOu9nFxa5WpaGhoaFRb6nDPoDBkP/vwECQT+i2hYaC8JdzbppAUURofj4oTRSP7dtvXvDhDDR9lrgNAyh3lJAm//PRR+ZzQ4bYkcBjfLxvH7CX555/3uyrR12CVRdo+mpCLQxAnW+vP6SfdeAAMIh7LI6k1VTCLLLPnwfxkH5MQMDtD3xo+uzRZ8c4QJyUUqcDvd6jKCXl9oWryJUMatMGlN6mo1u2VORjL5q+2uiz40YemFy44JlnAOTa3r2rhotpHCouNq/ijY0F8Jjati14XPJMfPBBkG1F7OzZFfGqEEjrfv3ggdKCzU89ZX9BaPpqo8+Ol0FiCYSFAV9YiWDQTYmJgYgpPqbkZCCSPWUh6pYVK8DQJn+52TWKwGComoxuqJgWFmbe/+wzTZ9j9dnTlPWVARY9dJQ5TGjZ7NoTH3xQfTKt4q+/8v77QF9aXb9eNVz6ySer8wSi6asrffYYgJ5kS3PwxAkulZRA7riuKTduVJ9Mebw1YkBpqYUI+7nUsKF9Zavpq60+ewygt7h45kzV06qf/LZJxuX//Gf1yTxwomB9YCAwQO5q1sxCgTQRGbXqZWv6aqHPDgOQ45Ul6ek2IrwrumzcCInrjUv79q0anLSqoEe/fiBG03bDBhvp/M4+m/lo+upQnx3jABuWnVrfrBncOOnZPS8P639jypw30Y3meXmVzudyuVMnqjpdUqWU/Z/9e2RJaqdO8PK2bttu8qOn6XOAPjtagHNzH37p6lXgnFicmmojoipwKPd17lxpa0V4OUNEbGoq/Dela0ptJpBo+mqjrwYtQLn/+yRl5ubNAMxQ5+M7hOHi7exs0DdhzYQJMKWtb+OzZzV9NeZVInJyQH9MpI0fX50+GwagPot00eLErl0g42XcPfc4UHhVcRMvXADld1Ofxx+v6vEzOTk/v08fkNN1i3bv1vRZ0wfKxREjIDLS/9SRI1XiVL0s6c+C0M6dQc6UHbKzKfembZVM3jx6FBhGXFISgM7XPJWpYUTllxP6uNLJHTqA8ooyNTAQZIicEBEBfMvYHj2qvxH9KWXAoEFwY7+4JgSIbjTKydH01VSf3CD/ERBg/jhXRd+ikgGoa/AuxXi1y8kB+aaM7tXLQnqq9+2XhC4mBqJm+m602Su1gpRSCgHJG840nTIFZLwStnIlEM3rlt2oiWk3W7DlIVVNnxV9cWLYDz9Aq/jiAQEB6rePKhmAuh4eQXZ8vIUEDoqQK1dAPq1cGDECop70v1iXHz5Yl28MGTwYdJcFu3YB38s1TZvakYCmr0b6xHxxefp0iCjy7ZWQoIM4mSE9PEDEsmL+fOsZyJZybGRk3QtXmervt2v/fhB/cLU2iz01fTXTJ++VS+fPV+tdVP9hR75i3rffQuQ2v22qV21nYDAYjWVf47I9UULTVyt9Ik22HDlSB/yL9kFBNlIKEsvWrHGe8HKBCQyqUb6avtrpayBWBwUJMIQZwzIzgWCWWRqLFovFI/v3g+wr9zpznro4LIK8vEAulD/Zcuio6autPhGbkSHAcKJgfG4ukCUXd+3qPIEaLmafeCY3VwcskjHO+0iRxp2CyJTRV6/qKj7IwLucsjWkqVFPUOt5tO7c3Ln/B6GQPpHM9ROiAAAAJXRFWHRkYXRlOmNyZWF0ZQAyMDIzLTA0LTE2VDA4OjIxOjE2KzAwOjAwSmxQwQAAACV0RVh0ZGF0ZTptb2RpZnkAMjAyMy0wNC0xNlQwODoyMToxNiswMDowMDsx6H0AAAAodEVYdGRhdGU6dGltZXN0YW1wADIwMjMtMDQtMTZUMDg6MjE6MTYrMDA6MDBsJMmiAAAAAElFTkSuQmCC;" vertex="1" parent="1">
          <mxGeometry x="351.2" y="287" width="45" height="45" as="geometry" />
        </mxCell>
        <mxCell id="zaOTciwMg_2Ca42rMOiH-114" value="" style="shape=image;verticalLabelPosition=bottom;labelBackgroundColor=default;verticalAlign=top;aspect=fixed;imageAspect=0;image=data:image/png,iVBORw0KGgoAAAANSUhEUgAAAEAAAABAEAYAAAD6+a2dAAAAIGNIUk0AAHomAACAhAAA+gAAAIDoAAB1MAAA6mAAADqYAAAXcJy6UTwAAAAGYktHRAAAAAAAAPlDu38AAAAJcEhZcwAAAGAAAABgAPBrQs8AAAAHdElNRQfnBBAIGDDI3YmIAAAP/0lEQVR42u2ceVyU1frAv2fYRE3NXQRUQEvK5NpV0fSDCyI/M8l9KS0IGRS8Rnal5Zo/TG9JtxU0ZrRc7s0F+Zmmpajl0k1Jzd3QcCAiU0NTM8OFec/vj5kXZlQIZgZGiO8/78vheZ/zPOc88y7PWaCOOur48yKcbYDj0Ony5P33Ayi52dlVV498ULQJCYHYR/zq79rlbK/txdXZBjgO+YGiNRpB6Oly8WLV1aNJV7yLi53tbR11OIQa+AhYIvNkvXpQ9L7mB09PZ1tTiucUxbeoCCJFB3HtmrOtqSg18BFwQ6/knjwJLi4Kvr7OtsbCrgA+y883nbdv72xrKorG2QZUHjFdJDVo4Gwr7mDXabG6YUNnW1FZamAA1OFIalMASGavWQNGo/Ef/v4gP2B+p05AFu/+8ouloJh64ECpnHpUy0swX6fqKZEz11M7qIHvAGUhhxNWWAhTW3WalJtbWq5bnBtRVATskaaCv5Nz6RJM/bVTrpVco1y/S5eAN8wFCSK/qAhiH/Jbn5MD7DUVp50zLC8sBLHO2R47gloUAOIlOkdFgb5xrjY8HOR/5X0aDbBbRrRtayE4Ro4ICQH9mtwrBkNpsRwt72nXzkJuj3yrbVvQHTWE5OWB6CNOKgrIl2RnLy+gh7M9dgS1KADoQdN69UD2kDP9/IDdZch1Z4qLC8juEj+/CujdTUT79iCTpbM9rAJq0zsA4snz54FMzm7bBiCe274deJgtimIhNZW9RUUWcuZjSblKyXVmPaV6TfXUCmrTHWCFvLxqFWh3+j8ybRqw1lSseyr3u4ICoLcM8/YGGYHvV1+Bdq3/I4MGlV6uG2H4autW03loKJAi3vvpJ9Au88seMACA9QC6C4bAlBRgAsTHO9tpe6mGANDpfppcvz5oNL8ndu5c+et/jC7wP3wYkkR/UW4OfpkYEBAA+hdzr4SGggwR1zQaQCgb77nHQm6uSPHyAr1Hrk9oaGmxnEWKlxfwpZwHQG+58Z57QNcrLzgsDMROWU9RQL7GgIAAILP8R8JsuV26uoL3Yh9D166V91tR6s/Pzgat1mvR779XUedURwAIl+srnngCFKN4Qa+v/PUterRObd7cdH7hQjmCmTIhPBxkPxLCwwHK6KAv5bzAQJD9QP3Fm8pvF23cGBBKVmamSd5UT8XtbtwYlGgxZP9+29otJsZ0vmhR5a+vGNXwDiCNyhHX2vSoqSaqp91q00vgVhJ37gSkYMwYEKn0Gj8e+FqEX7liIdeH5jk5pXIlR7VcxXxdiR5VTq2nVlCbAqCQb48eBW2sn/+aNRBz1P/nVasAI66XL1vIzeJYfn6pnHpUy0swX6fqKZEz11M7cOKtWT4hRixdCiJA+b89e0AYNYHTpoGcK7MffLDy+sQ34mREBOjSDE+2agVsRKvRgFhOSuvWIHubBQfTunt30IUZnkxPt1RgKi/5czldWrcG3VCDPiMDGIpOUUA8L1YGB4OcYFteQPxDdD52DKSL8m1KCshTmpG9eoH4SK59+unq7gUnBoD4D2s/+wy0ZwP816wxdZz6Vm5LAMg35Xc+PqZzHx/gMXP5Y/K1W2VNL3ckjR5djr40+Zr6DB45EoAkcz1J9vgtX5VjsrNBGxsQoNeD7j+5hosXAQHVHwDOfAQISfPmsHBhfv699wKC+o0b26FvH+8bjUBPPlOnhFnd+lXSMEhpIace1fI7cPmyhZxaj81+m/ws9dvUDs7Bye8ACxeCi0txsXm0LjEszA5luSJn8WLQBvlPa9oUYmL8/O69F0QCe86etZDzR79rV6mcelTLVdTrVD0lcuZ67CAxLMzKbxYudEbrQ+3KBLrL8/Xrl/6yFvQ4karRgJuvxxwXFwCZBcBOLnp4WPwCVWYXR3l4AObsoPQVCS4usKDHiYtNm5rkFQX4pHhC/frOdtZRODMAEhifmQkiQpw5dAjkXpk2bhwwk/utRuUqynCWT5wILhQXT5wILtHuQ0z/kEOs5OaiDw42yVnNE5iLdZoqQWa1aAFuuGPK/ZvzkMNZbpffyZzIzwfRQ8SuWgVyvWwTFAS8zcrBg6uv+U1UQwC4fa+8nZEBN9u5rjYYAKFkdesGmmc0X+/YAZNTOoisLNClGVaaR+eSbAqAmsLfWbl3L8TE+hW88AIsmpb3Q3AwGP2V1O3bQZzSzDl4ENzyi8cePFjVxlRDAES91jG1sNB0vmULAP7moxVyMvulBGHf87WEktG9hmLHmTO265EjpEeTJkAw05s2td8u1U9iTX+rPwBSICvLSjTVMS1RHg4MAHXwo82rPmkTJoD4X827jz8OjJFLvL1BHBZhhYUgb8hVW7eC51cNXBctgkmtWw++ehVcjovn5s0DOZ2kgQNBvitnN2tmR0MvFKuyskCr9VtvHs2zCf1KQ/jMmSCDYf582/WI6SLpwgVAyo1z5wIQALBg1PFRDRuC22bPjydPBhlK70GDgHoyuXlz4F90LSgA+aFctn49nJlVELtiRQUGxyqEAwJAp8sPa9MGaGP03bABSJI7Hn4YeF9avdPL/vKQej5kCBStv0pCAiw6kqt/7DGY/JBfzJEjkPZL7vbISBBr4JNP7LfvbkG+K2c/9RRotf7+R49C2py8x7t2BU2y/HjDBus8hhWfcqZ7dxCtRNiIEeA13jcrPh4WjMqTw4ZBXEYHYfWVUyns+AxUf/H0K8745BNKO74S+PqCMkp+vmkTpHbPTmnWDGKb+vXfsAGLCRg1nvlbtpg6/tNP4cMXc+JbtADRSnlo06ZyOr4s+tOye3dwHaQ8u24dpKdLafrKsQU7AsCrQbtF48YBOyj861/taJ4Z/NPLC9yi3Yc8/7xF+WZxfNkyO/TePSRa+nFzh8sls59PtWljl96/9ewJFy/m5o4da6sKexJBb8ldw4Y5sJn6ipct9YkzfLp3rwP1Own5AfP37bMoeEq2dWS7yWgejYiw9Wp7AuALcdJqtq2diK6s9vYu/fvaWKOP7c+2uwe3kTd7WPmxV6x1ZLtpOoh82/XZEwDXZDNHTo6UKYSon4sAnh2hUSPH6Xce9U9aTUm7Kfs7tN1e5nHLdqscdgSAGCDOZFZwelSFHBkuoyz1yWOuO7t1c5x+Z3FzcvEQy5djcU6sc2i7uciutuuzIwB+W+U2ackSEDNFsuUKm8oi4kXAr7+C+Jjelt/Z0lO2Hj/ecQ3lLDThjLD0w5gpzs2fz+0zlSqLeQaTxzOaxKVLbVViRx7guSyfGUVFsLj197uHDgUjRjZvNv2vIsu21Y5nFN4jR4I21j/ghx9g0bSceG9vkGtlVz8/cJvl3r+4GDC/SEl3/nv4MDBb9Ct3+DiQbt99Z0cDm1FekhFnz4KYren3zTdly0l33C5fBsx7A7g94/4/xcXAq7Kevz+8v+G7xLZtYYroIL7/HnRpeS1GjQK+JjwjA+gpN1s9KsrCPJYAmiHDhkHkA/bsR+DADSKWyDzZpAlcPyAHJiSAaCDDIiKA+fzk4wPcZML580ABUVu2gPGInJecDFMvBgwvKHCcHTUNXZrhlK8vMJ7kmTOBOKIGDQLcWNG8OZCIV0EBcB+J69aBOxreece0EcWlS862vo4ajgPuAG8FF7zp6QkNPYuXDhoENJBJoaEgF8r97dsDz4utzZqBOMqJS5dA+Up6nj4NzCV6+3Zwle7NMjMh+m2fGdbLuB1L+urjo9zd4dK/PXQDB4LM18z+y18smqKdknTwIDSZeF37+ecwZuwDGTduVJ09ixMK3mzaFIz333jctI6BGf37g3hHfO7lBbIL9zdpAvxLDrpwAdgkruflgRzN0G3b4Pchbge2bSt9FNuGDQHwXnhOvIcHeJx2YcYM4Carn32WkvHzSpPKnKtXQX4qTi5eDK5vu42eM8dxAaFLM5zq0wdEonhj2TKQyebFo2UhxTMGA4gflOmTJkHMPwOG795d4erKdtOc6naL9vj+lVcAZJPoaABsm2ASTNOffwaxVPR45x24lm0c/NZb8LfNHVOvX6+okkoEgP5ybkSnTiDPyF7p6cBORtuy5OkP6SWeO30a5BVWTphg+358urS8qT17AvuUyB07KFk9XOGmUYeT3xSvh4RAzLN+h60yehVttyl5s0JCQE6RRz76iJJl5w5nB0mHDoE0UG/MGIjd66+3WudwZy//WG/a0znxgYEg0Ez64gugF81ataoCB241zdwBipe4EhEBsQV+MVZLucpASimFAP3J3PkHD2J/oJobNmaF37Ju3UAIIWQFZoQvqp/3xuDBoIxX+q1bR6UD0A6WmeY/aJIGDACttoM4caLMVi5by3vhOfGNGoFHC82NQ4eAPiR26FAtDljTXcT99huwzxgQFARabcdUy40dbkWfnieDgkBeVHIdOaNGntPMCAqC2Fc6rDt8uGy5tB6GmI4dQRRx/eBBIJ5XnLKplflRVrytqHlQEMRlPJDx22+3CpWTCPK44VKQnIzzOl5ln1xg2n1Lk1ChhMerSivTlrEO5pISGBj4x2Kas+LfS5bgvI5XEfIDf39wWVBvWNkTWe4QACXfpWM5HRXlRAfuQJ8+oB9vvaz7VpT9vFsVb++aqewsL+GiS8trERYG8mV57JFHnN1SpYgwMT06ujTBdotXd/KE3MhIALnazc3Z5t+ODJEh6rLpO/5/izHu668pd6FHpTDrMWYbs8sdnt6orC3PLqcxVe53dwfjOPHS7SuP7hAA4oKIsNw5464jmJ6hoWXPhJnyWKdfTp8GtCzPyHBAfZ+J7enpFnpvocSOuRyyZ+5hVSOOiaLbp53fYSxA2STf27ULxCzO2p5gqFKG/PwzHI+B8n/hxX2mTgXxouuXDz0E8jX63ndfJWqR6E+cgJvDrnvHxZUtdny0yQ4vPUM2bQIyOduypbOb6A7uvMq3t3/G1sDNoiuLugLIZZxx5euvg2gh202cCHIhPSw3my757h8opi9bBm6Z4tyLL9b2nPufIABuRd2zSDl31cPyjqBp1eD6yZNVvSfP3cafKAB0aYZTXboAQrbt1g1EvuaCZepatlOaFRYCUpw+cMA0PF17NoIoi1oYAGoCq15nl8y4OJCRBMbFUfkU7G4x9Mcfgd5y44IFcP1j5e2FC0259l9/dbaXjqIWBcCiToaWAwaAkiF6LV+O43Pue7hw7hyI89I/MhJiNgY027TJ2V7bSy0IAN29ho8jI4GtnF28GPiGME1V7nug7iD6jXw6Kgq02gDPmrt+oQZvEqXvn9dl2DCqr+NV1HoeFks//BB0OoPh0Ued3Rq2UgPvAO8PMrRs2RI0BUIeO4bt8xAchXlc3m2VMuvBB61XQ9/91MA7gGYkgTNn4vyOV8nil5YtrZZ81SBqUACo3+/sFafvxpy72M9HsbGlU+RqBjUoADQJ1zv17UvFp09XMzJVnmrUCBo8Xfx6377Otqai1KAAUJCNW7TAcaN8jka16zk5724cC6ijjjrquJX/B/GPdWkbMQq5AAAAJXRFWHRkYXRlOmNyZWF0ZQAyMDIzLTA0LTE2VDA4OjI0OjQ4KzAwOjAwtJruvAAAACV0RVh0ZGF0ZTptb2RpZnkAMjAyMy0wNC0xNlQwODoyNDo0OCswMDowMMXHVgAAAAAodEVYdGRhdGU6dGltZXN0YW1wADIwMjMtMDQtMTZUMDg6MjQ6NDgrMDA6MDCS0nffAAAAAElFTkSuQmCC;" vertex="1" parent="1">
          <mxGeometry x="540" y="180" width="45" height="45" as="geometry" />
        </mxCell>
        <mxCell id="zaOTciwMg_2Ca42rMOiH-116" value="" style="endArrow=classic;startArrow=classic;html=1;rounded=0;" edge="1" parent="1">
          <mxGeometry width="50" height="50" relative="1" as="geometry">
            <mxPoint x="560.62" y="280" as="sourcePoint" />
            <mxPoint x="560" y="230" as="targetPoint" />
          </mxGeometry>
        </mxCell>
        <mxCell id="zaOTciwMg_2Ca42rMOiH-117" value="" style="shape=image;verticalLabelPosition=bottom;labelBackgroundColor=default;verticalAlign=top;aspect=fixed;imageAspect=0;image=data:image/png,iVBORw0KGgoAAAANSUhEUgAAAEAAAABAEAYAAAD6+a2dAAAAIGNIUk0AAHomAACAhAAA+gAAAIDoAAB1MAAA6mAAADqYAAAXcJy6UTwAAAAGYktHRAAAAAAAAPlDu38AAAAJcEhZcwAAAGAAAABgAPBrQs8AAAAHdElNRQfnBBAIFRBGHdcNAAALqUlEQVR42u2de1RU1R7HP3sGVHxLZWb54KEttev7idoVgyRdSSWadm2ZJQ8NRdGlqRVlmdq6PkhUBnRZ2UPFVRgmahYkKWhm6go1YUCt1bWbF01TkJyz7x/DAZSZgUFmxsHz+ec89j57f8/ev9lnzz57/47A4WzdKqVeDxcvFhR8+CGQwKLQUJCHCUlNBe/tvuMnTYJx44QwmRyvp65IalqgnzULuI7yxhsgE2R+8+b2pyOihf/lyyDbyx1xcRBp9Bu1apWz7kI4PguDwWgcNcq8v2NH1XC5gWWjRkHUIb+knTuddeO1572QvOjmzaHhQ7pGRUVAP6bq9XWQ8PesM5ng+q9Kibc3zNjVKeHyZUffjc7xBSZaMe+++2xImENR69aO11FXtJlcer6kBMgm6MqVOky4zJA80z1We3s7626cYAD1jXHPdttWWgq6B8WO0aMBxKupqcBuzu/dW2m7mFknT7pabXV4uFqA+xK+xzchKwvYA1lZAHwKsE4Wyo4dQfeTMiwjAzjgaqW2qMcGYEg05rdoAcAbycmA4OFRowDJz19+aT4fHg6RUX7+f/5ZB/kZ8qL9/EA0kx4ZGSCXc7pdO1eXQnXUw0fA+ln5M/39gXeIzc4GBG+OHQvAc40bVzouCy+PX0vKK362fp254qXlil8r+paWgphP1s8/u7qUVOqRARgSjflDhoApXffxgQPAQlZ26WLjgrJw0yWhHDwIyZ2NrYcPr3l+638ruNahAxCg8927t/qKl+2VkHHjQDknVmZnu7q0VOqBARgMBelTpgDrRL+vvwZmyRxb/zqqMJAYb2+QeWLY7t2Q5F3wY3S09ehqxZv+JxMzM4EDhHbsaCHiLRUfleb/6fbtri6tW3FDA1AHlhLPFQw0D5jIzsnJwDR5uEEDCxcksOjqVZBD+GbJkorjW5GJcomHB8glsvnq1RXpq/mpTb3SmWZZWVRf8Rl8FhZmoeKvytnXrlm/v4YLbky3pM8xuJEBqJ26i/0Lp+/YASJdfhwTYz2+mC06//ILKGOVZkOHQlQ3v/AFCyqO1XCr15elf2lhwbr09Jo/48sr3ts3MC2tajT927rnN20C+omX//qrUoAkLiUFXlzSKeGPP5xVqm5gAOXPWrVTt1vOCgmxecl7Bw/C3yHiRv/+MPX1Tgk//lgRqB6r4Wp8a8g5jAgOvv2KVwlf7SNycsAzxeTv6wvyd93snj0hItJ307PPOrt03cAATP5ymMFA9Z064JNPoEGEbtWwYfDyNh9x/rz1uGq4Gl+9vsaovfp9PDpmTPUVfyvqLz3qdZ/UY8dACCGkdHbpusM4wGjiLQ6NJmKUEsRxUfLaaxB+w+fJd96xvyAnCx9RUgJSSjlxIiR7FKadOAGyu2z01ltAFH6i8juTWyo+ooXvdkvvOAyG38IbNwad7tq8Ll1AURovO3kSIiPbJtvqAzgXN2gBlE+VgXPnVnpmf8eywkIQKbw5ZgxEmHxHL158+78g9fry9MrSBzh3rmIr05RJoaHWK37t2rNnW7UCZEne8eOgKEIcPgwsLUk7dgw2ykLZsqWrS1XFDVqAqaKTyMw077dvD2wiCYBNjs03wt9v/+efA+BXtq0RHn2UScHBII/KDX5+lQJekfv9/aHUQEFwsPlUSopTitAGbtACuB1nlXsbN7YeLLzlvCZNXC1S5S4wgMRFhU/16FExgSP5eEFS9+6uVnWnUI8NYO3a0xN8fUGcVRbm5Jj/xq1YAUq87GUe+j1T7OPjapWuph4bgH6OR2BAANAf70aNKgWUHSu/KpsGD3a1SldTjw1AvC/3eHjUPvzuoB4bgEZN0AzgLkczgGpRJ4yobwPrF5oBWMWQaGw9YwaYMsXI06eBRN3ovDxI3Jz/3fTprlZXV9z1nSAbPCqGR0YCQt70LkB01y2MijLvr17tapG3i9YCWMck+1sc0bN23i1xAwPYuiU3rEEDSGpf4PXii2BoZfx88mQwJB7+3tPT1ercHTd4BBQFN9qXkABiofwpPLxSwBbv2AEDzLtqk6xhL27QAoitoqvF2bqFHHzsMVerc3fcwAAYLEdbXHz5hZyrjeTdLu5gABoO5A74BckiGo0cCYl7javvv99CBBOULfG69bxnixbm6+bNs5BuPgf79MHqEvg7LV/dN+JpkwnEeHbu2QPh3X0jjh93dOk7wT9A0lZj2AsvgLzIso0bHZ+f23OIopIS0GXpH+naFcJPd/QqLHRUZs54BHTQXbhzJkG6AWWvq+VOU1DPno7OzAkG4NmfjD17gKVicH6+4/Nze8rKydNP911GhqMzc8IjQGXFwF+We3mB10elX/XuDfrXRK6Xl/Pyv9MxvSW7FRdD8cQGwUeOQGxOu9nFxa5WpaGhoaFRb6nDPoDBkP/vwECQT+i2hYaC8JdzbppAUURofj4oTRSP7dtvXvDhDDR9lrgNAyh3lJAm//PRR+ZzQ4bYkcBjfLxvH7CX555/3uyrR12CVRdo+mpCLQxAnW+vP6SfdeAAMIh7LI6k1VTCLLLPnwfxkH5MQMDtD3xo+uzRZ8c4QJyUUqcDvd6jKCXl9oWryJUMatMGlN6mo1u2VORjL5q+2uiz40YemFy44JlnAOTa3r2rhotpHCouNq/ijY0F8Jjati14XPJMfPBBkG1F7OzZFfGqEEjrfv3ggdKCzU89ZX9BaPpqo8+Ol0FiCYSFAV9YiWDQTYmJgYgpPqbkZCCSPWUh6pYVK8DQJn+52TWKwGComoxuqJgWFmbe/+wzTZ9j9dnTlPWVARY9dJQ5TGjZ7NoTH3xQfTKt4q+/8v77QF9aXb9eNVz6ySer8wSi6asrffYYgJ5kS3PwxAkulZRA7riuKTduVJ9Mebw1YkBpqYUI+7nUsKF9Zavpq60+ewygt7h45kzV06qf/LZJxuX//Gf1yTxwomB9YCAwQO5q1sxCgTQRGbXqZWv6aqHPDgOQ45Ul6ek2IrwrumzcCInrjUv79q0anLSqoEe/fiBG03bDBhvp/M4+m/lo+upQnx3jABuWnVrfrBncOOnZPS8P639jypw30Y3meXmVzudyuVMnqjpdUqWU/Z/9e2RJaqdO8PK2bttu8qOn6XOAPjtagHNzH37p6lXgnFicmmojoipwKPd17lxpa0V4OUNEbGoq/Dela0ptJpBo+mqjrwYtQLn/+yRl5ubNAMxQ5+M7hOHi7exs0DdhzYQJMKWtb+OzZzV9NeZVInJyQH9MpI0fX50+GwagPot00eLErl0g42XcPfc4UHhVcRMvXADld1Ofxx+v6vEzOTk/v08fkNN1i3bv1vRZ0wfKxREjIDLS/9SRI1XiVL0s6c+C0M6dQc6UHbKzKfembZVM3jx6FBhGXFISgM7XPJWpYUTllxP6uNLJHTqA8ooyNTAQZIicEBEBfMvYHj2qvxH9KWXAoEFwY7+4JgSIbjTKydH01VSf3CD/ERBg/jhXRd+ikgGoa/AuxXi1y8kB+aaM7tXLQnqq9+2XhC4mBqJm+m602Su1gpRSCgHJG840nTIFZLwStnIlEM3rlt2oiWk3W7DlIVVNnxV9cWLYDz9Aq/jiAQEB6rePKhmAuh4eQXZ8vIUEDoqQK1dAPq1cGDECop70v1iXHz5Yl28MGTwYdJcFu3YB38s1TZvakYCmr0b6xHxxefp0iCjy7ZWQoIM4mSE9PEDEsmL+fOsZyJZybGRk3QtXmervt2v/fhB/cLU2iz01fTXTJ++VS+fPV+tdVP9hR75i3rffQuQ2v22qV21nYDAYjWVf47I9UULTVyt9Ik22HDlSB/yL9kFBNlIKEsvWrHGe8HKBCQyqUb6avtrpayBWBwUJMIQZwzIzgWCWWRqLFovFI/v3g+wr9zpznro4LIK8vEAulD/Zcuio6autPhGbkSHAcKJgfG4ukCUXd+3qPIEaLmafeCY3VwcskjHO+0iRxp2CyJTRV6/qKj7IwLucsjWkqVFPUOt5tO7c3Ln/B6GQPpHM9ROiAAAAJXRFWHRkYXRlOmNyZWF0ZQAyMDIzLTA0LTE2VDA4OjIxOjE2KzAwOjAwSmxQwQAAACV0RVh0ZGF0ZTptb2RpZnkAMjAyMy0wNC0xNlQwODoyMToxNiswMDowMDsx6H0AAAAodEVYdGRhdGU6dGltZXN0YW1wADIwMjMtMDQtMTZUMDg6MjE6MTYrMDA6MDBsJMmiAAAAAElFTkSuQmCC;" vertex="1" parent="1">
          <mxGeometry x="540" y="287" width="45" height="45" as="geometry" />
        </mxCell>
        <mxCell id="zaOTciwMg_2Ca42rMOiH-118" value="" style="endArrow=classic;startArrow=classic;html=1;rounded=0;" edge="1" parent="1">
          <mxGeometry width="50" height="50" relative="1" as="geometry">
            <mxPoint x="562.75" y="378.5" as="sourcePoint" />
            <mxPoint x="562.13" y="338.5" as="targetPoint" />
          </mxGeometry>
        </mxCell>
        <mxCell id="zaOTciwMg_2Ca42rMOiH-122" value="" style="shape=image;verticalLabelPosition=bottom;labelBackgroundColor=default;verticalAlign=top;aspect=fixed;imageAspect=0;image=data:image/png,iVBORw0KGgoAAAANSUhEUgAAAEAAAABAEAYAAAD6+a2dAAAAIGNIUk0AAHomAACAhAAA+gAAAIDoAAB1MAAA6mAAADqYAAAXcJy6UTwAAAAGYktHRAAAAAAAAPlDu38AAAAJcEhZcwAAAGAAAABgAPBrQs8AAAAHdElNRQfnBBAIHy59kyIsAAAKy0lEQVR42u2dfVhUVR7HP2cQBBVNbdFV22TAtJJqVVgqLTMz06e2WjXFxXKVGfA9W98iUzNTxGeRRGEG1LRNzdaXDPOlbH1d8aV9zFZTYYZdfVxBDV0zqYg5+8cwonBnTIeZe8eZzz9zH37n5Xfu+d7zu/fccw8Cn8NkslhSUuzHixap7Y02mDIFjMaoqDlzbjanTm3Xq5FSSiHA1LKoyGBQ2xt/QQMCcHS82Vz85/nzgRlCjBqltlf+gooCqNXxyBFjxqh9QvwNFQQQ6Hgt4UUBBDpei3hBAIGO1zIeFECg430BDwgg0PG+RL26K0qzHT9EbEtPByJtPYqKFOwzhDCZFP4+RzxaVASU23anp3vPXblRZ2jdGsRBmfvmm56urQ4EoNmOd7BM9tiwAYwl0dG7d9c2m7BYFAUwWe4pKQGjMTrKbPaeu6YDlqKYGECATwhgwTNFo8PDIbRp0MeffAIgVtt/bw1xpzh5+bKnGx7ATh0IYMzmdlmXLtmPP/+8TrwSKp4RP6MO7wG0inid3Xl5YGppvUt5ZJHKGWPFyIcesuc7eNCLDj/GG2FhwC45y/OV+YEA5Gy6tW8PILffVMYDcmGjRsAM6NzZiw7v8mJd7gjAFGXZOG4csAar529WrmEfK+rXByDBi7XeprgzAkykQ2gosI8OTZuq3ZAAt4YGXgcHUBMt3AMcILuyEsgXHx46pGAPo6JJE2Cy3BMdrWB/WIw/fRroxT9LStRuTB3wBY86bgLvu8/TlWlBALGkXL4Mxjz9vC5daptNJoulb1/7cX6+Qv698i9ZWWAsuZUlUdrDtNPytmMi6PBhT9cWCAF+TkAAfo4GQoAYwf6QEBeLQVfwbEwMkIDyBHOK6BsXd/ssJpWx4urLIM/XpgEByEXEhYUBCBRfyoDrNwvZcuMLL9jz2399G+90vINACPBzAgLwczQQAoAVV64AUiS88oqCVUg6dbIfTp7spIAVgBSsX692U+oAwbbf/AZAPjlvnqcr04YAEioqwJisj/roo9pGk8liuXLFdQFff+08v69hyqleEOJ5AiHAzwkIwM/RQgjozNbwcDA3sRotFgX7q3JvgwYgM3hYMX8BmRMm2PMnJandGPeRe3k2JAR4ROa7XdgN0YIAvqSXTgdyruyl199C/njGNmsGMl7SrJnajakTJnqvqkAI8HMCAqgmQ8SfOwfsE72/+05tZ7yFXwpA/PH8eRDnSRs3DoL/bcuIiADjMf25iAgwLtEXNm4McjFp99wDvM9/MjIAxEsVFWr7Xtdo4R7AW3TlzsJCYJd8v2dPMKRGRZ886Tx58v4oc2EhAObx4yF7V6HcsAF0Zt3bGzcCkNCggdqNche/GAHsV65Mt6U+/zwYk113vDNSRDuxfTvIcmHV1JdPbuEPAlgn669aBcnvtcs6erS2eZqUUqcD8yDrXT17gslU1MEx9azEmbGRS5YuBXaTVlysduPcxR8E8ALLN292bm7dtTh36VKQ3eX2zz4DcsS7Bw+CyWTdNHx47fQzhBA2G4hSsX7LFrUb5y5+IACxXXQ/e9a5XbYn/bp1BMlECQFs4p0XX3SRb4ssLS1Vu3Xu4gcCYA/n7W/XnBAnf6c0QsiBttmbNrnIZxaGtm3Vbpy7+IEA5H2yU/furlJcGDt4MIjFoku/fiAO6d7r3h2SB0Z3XbCgdurVq6UMCgIkhV27qt06d/EDAYgtovWgQbDoh+IY+zeC12NM7hJbUQGG/foLa9aAITty5o4dzsu7YLSuHzIEEHJxVJTarXMXLQsgB4uUwNMiY/NmEFPEpdGjq69UECeSkoCPRfKqVeBsokbmyNn16kHQvfJcfj4sTjs5oVWrm3fHnFI89fHHgTasVxoZrlJAZlkZiE/EVwsWAK+KbYmJIPeKvP79gSyRkZoKPM5HX32l9kl2Y9GByWSxOFbozJ5dhz7t5dvSUpBJouOAAZD8qL7Bzp03zua4woOGSd2aNcBjcu399zsvny/EpzNngvGkfvrChbWTLU47lhceDj83Cf7rtGnAAdJHjgTiaBYaqlBuX369di2EtNaFDRsGQ0WkuHjRub/VO6tYrcnJAOKlzEwA+WFw8M2dsttir2CqlobpxotDvXr98o53MCI08uvjx8F2Vp7p0QPEa+KeU6cUEj5M8xYtgFSZmJXlvLyfmwR3f/BBQLD4tddw3vGvMmjLFmj6D33YgAE37ngHQgghpb3jsrNBzOKIXQjeREsC+BNH58+HpAf0Bnc+iUr5LOrs2bNgM8hJkyZ50mF7yNG1CdqRkgIDBghRWXnrpRlO6suXLLEfK+1l5Bk0JIDKSt2/li93bs85Ysl95x0wvWy999Qpewj64ANY/eGRfiEhtdP/dNR2ae1aIFaM9MieQxMo27ULkk60DVOaEcz7r/XK3XeDqall3c6dYEq0GKxWMOVYLf37uypYnFi2zLPnuhpNCMB+JZXWb3u46uXLdTimZsVuekyZAjwi89u0sdsSEqDseP0nBw6snW/M5nZZP/4IpMsIxe3h3OW3MlRpatmBbbB8d+pUYA4PdOsGdGVSZCSI0UTn5V3zOFkD2cqWcOSIx096FVoQQGc5LCgIWpnPGJRibNC0ekvKy6l+KqjZhHzd699/76L8ArG1USMP+B1Ctqu3gXKgOKfklxws95WXQ//+YLMpZByhS/OIv4po4XWwY0lYUPn/HN/DX7sp0/CSto988w2YsXROSQFmiaOJiSAt8vkdO+C0IbJs3TpAXP9Ms7DfkX6NGgF3yLaRkR7wuzkhMTHOzRV5P7Z96y0Izg/JatYMWC+srVuDTGLl9OnVN4E10V0gpWNHkHDC8ydfCwJwMFCsHDkSGA5Dh9Y2G0qivnR8O2gyAcGsrDKtVCouOD/08ogRIDNJURpq3eYJImJjIfdXxTI+HpIWRIqCgmrzqAP3jv72W6AFJCZel1Nx3HCEhIvJ1mVGo2dPdTVaCAFViHHyqcREyImzGPr0ufVysp+yRHTsCLKAvs6+JKpLbB1l74UL7R90NGly6+VcSLe2mDHj2l3NvIGGBECs/UoVMSStWQPmvOKGSUnOb5Zq4thJRDeP49u2Afvo453Nq+SiTp1AzOTvW7dWC/BGvNu7cFTjxpBz0ho/fz4wnL2pqd7w91q0JAAHVRMustJ22GyGst9bV7l6LMr53LLA8byfnw8UUBYR4X235Zv0iIsD3d0MOXQIcntZR3Xr5jx9/ULdM4cPg9gkPxg71vv+2tGiAGog3iPujjtc2C30cWX3OlUjWeVF+VN4uIt0E+mgvt8+IIBf0Aj9smXAfsp++EFtX0BMFHOtVmiwoeEfXL1V1AY+IAAxVsyIj4fcw1Zzixa17UZjpDh2DOQgCqZPV9HRzmy12UCmyQkvvwxDWrZ8WmkewGQqmvfEE0AOlsaNVfQX8AkByEw5rXlzsL0h17rat//Mk/pR6ekgZomOe/ao4Og42mdm2lcdK83lLy8p2dKwISB1+bm5VC89UxUfEMBV+rLwuefAHGOJUJr6dSzWlKniyvDh9s2nyss975ZjyA/7W8OKqVOdp7sivi+dOxeNLSTxJQE4KBS9s7JuHBIIZplHQ0LVkG/7lIyhQ2885IvetHT8z2Pt4IMC+KUh4XS5ftO8eR4MCVVDvrN1C9oc8mvigwK4ikohwbeH/Jr4sgAceCsk3BZDfk3+D99mSCZ4sH7oAAAAJXRFWHRkYXRlOmNyZWF0ZQAyMDIzLTA0LTE2VDA4OjMxOjQ2KzAwOjAwwwKBZQAAACV0RVh0ZGF0ZTptb2RpZnkAMjAyMy0wNC0xNlQwODozMTo0NiswMDowMLJfOdkAAAAodEVYdGRhdGU6dGltZXN0YW1wADIwMjMtMDQtMTZUMDg6MzE6NDYrMDA6MDDlShgGAAAAAElFTkSuQmCC;" vertex="1" parent="1">
          <mxGeometry x="401.75" y="692.5" width="36.5" height="36.5" as="geometry" />
        </mxCell>
        <mxCell id="zaOTciwMg_2Ca42rMOiH-123" value="" style="shape=image;verticalLabelPosition=bottom;labelBackgroundColor=default;verticalAlign=top;aspect=fixed;imageAspect=0;image=data:image/png,iVBORw0KGgoAAAANSUhEUgAAAEAAAABAEAYAAAD6+a2dAAAAIGNIUk0AAHomAACAhAAA+gAAAIDoAAB1MAAA6mAAADqYAAAXcJy6UTwAAAAGYktHRAAAAAAAAPlDu38AAAAJcEhZcwAAAGAAAABgAPBrQs8AAAAHdElNRQfnBBAIIQ9wPykPAAAI50lEQVR42u2be1CU1xmHn7NYvMTOULWmKtK4S2zqLYqIN6R0lLQZdFgs6owwSabqQrzUqQioycTYqRdArbU2siuOl6rEG25Ex1s0DqFqFTXWqKmwS2ZAnXa80BnHO3v6hyxQZNe9fB8L8j3/fmfP+e17fnu+97znLGhoaGhoaGi0RUSgBSiPlFIKAfm/qpgTHQ2O39AjLg44Ji/GxABxZPfpA8CObt3+76NTb98GjpFVUQHEiSHFxYCUU44ehdQ0Q3hJSaC/ndK8AgZYLKXU6aDXbvuk994DZon96ekg/yivDRig7FiXLwPInqtWgclk6LB1KwghhJSBjoKvtGIDWP5rT+jbF+Qb8oP8fGAFg8aMaUYBY9leXAxyKlXTp0PaWYOlrCzQUfGWVmiA9bJMxsaCboDuyL59wO94MyQkgILWUlZdDdIiYhISIG20vlNxcaCj5CmtyAB5ve2WuDgQVplUVASUcq99ezcf+ExEPnkC8oJ83WoFMphotYJjma7owgXoXN1xZVVVffP7IQ/nh4aCbpFjQkQEkEuh0QgiQvzbaARmytLgYDfjneXuo0eg+5r4+HiYcd3wnxMnAh21l9EKDGA2l802GIAzOt3Zs8AI5nbp4uYD8fQoLISa/TXTMjJg5sy+BXa7AuN/GPRlbi6wXh5MTHTdXswVS+7cARGmMw8bBjOuv9GxoiLQUXSpNtACXOPM5i1TKqJKSoCx8vNRo5poOJSjDgeQImcsWACp34W3y81VT5elg+3XmZkgS0hYvhw4zzs6XdNtS0rAZNLrY2JaarKo878LtbC8VrEhORnXE1+LKBQTsrLUn3gnpkeGwzk5IKt5tmiR+7bR0bBhkP31KVOaNXRe0IINQCknFi5087x2qTct04euXNn88tLGGeZkZwOIj61W1+3kbE6/zCiBowUaYH2R/WJUFPC1XNqvXxMNapM7DjoyMzMDrRZqap6Rnt5AVxMMHAh5+bYVkZGBVtuYZswBdu28khQcDNVvdLptNAJz5CWjESiXf4qIANmLr0JDgShmBwUBUXTp0OHFfuR04nftgrQgw3ctaWm1RNjW7N4NMpUJSUlNNKjdJXCWdTU1IG7wy6oqIFz8/sIF4C/ibasVQr5/0M1qhclT+u9xZSjlaAYD5D22FUycCLru4mRuLsgcmanX+96f/Bcbp06FtNWGZQUF6uv3FMsR+5jkZJDfy83btvnRkRTTbDYQ4+TTjAwwhRv+vm+fWqpVeAU4S7Pmh3ZLTg6IzUTt3ev/xNdJXiyunD+vVkB859kvRHVpqQIdCbnRYAB5nK2FhWAeaU/Jzq6Pq7KoYIAeNrvIzga2yrEZGcr3/3Tawx/cvKl8v/4iUx787MYNFTr+QC7JzIReUyvCli1TunMFDeBc6sVxbPPnu2kYyY8ePwYQn61dC0jdqhEjoGPCa+WdOwOnxPiGFTonIl30rayEWXv677l/X+lA+E+drpfor/uetd+bHUxYtw63SSSAjJUns7LAbC4/ZzQqpVqBHKAuuTN17HrtmpulfqSYd+MGSKsQ8fGQ9kkf66VLLzazjC+/8+67ILvqoi0WEHu5LiU4rjrmmEyQFha+5vBhpQKgPL7qt+yqkIMHg3xLGg8cAE7L1b16NTHACjG6vBzIulvUrx+kpkUOe/rUV7UKGMDyj4rYyZNBfuPYuHNnEw1qf/HyoO63w4e7nniN56z/Q9nsIUNAtzdo+5kzuDyDkKdF/qRJkLZZv3zPHl9HU+IV4NzOuaJULDWbtYn3lA8/eXPdxYtAsZy0YYObhmY5yP9XgQIGkH3loaFDXT939CRl+3bF4+QzZrPNFh8P5n/aE6qqwPy+/eeVlfVLd0tB97HO7G47qevBY/8LS0qsAPPEpz17un7s2PJw6dWrKkTIV06J8Xl51L9jR8kDoaHASV13sznQ4up5cuvBpG+/df1cfik+bzJH8IoWWApWHeeEN0Kuktd79w60uHpq7gf/xN2+XwzniMPh7yhKGGC1/NTdvrzduE7d+/dXIUKvOMGzxHa3cfuh3HTrlr+jKGGAMfzYXQVMHJDjkpOVD9ArT5T4c0qK68fyGpfOnfN3EAUMIAbrpn3xhRuhS2SsyVS/z9Vwj9lc/lZEBIh3xNzp0123k1mig7u4e4YCBnCeXjkPMV6g9u6es8DhqxFaSvaulg7nxLNKvF1UhOs7iNF0KysDMeLuRP8NoOBpoKXcNjoxsf4QwyXOkmeI7GGxgJwvb+3YATVbHo+9fNl1qdcZ6MZJnLPEarqvrwkL8yTQNpu7q1mpqQaDcBMXf3X8NelKUufOEPR+++MDB1K31Nf94l1NfB42KUGE6NKNRjB91efy/v3+zpoKx8HO0yvnIYbX1NbSxR1HickEpgPhXQ8d8n/i6vT5awAvP+9cMRgp5pnNuC7xesCKFc/7d3tTyitU2AbePNXnbwsXApvF4pwcHzpooftyn2lcd/AU5y/+pIjNzoabJr3+o4+UFqeCAZYIIRwOSD2t35aVBSDvJiZSf4ih4Z7ad7wMlZsSE8FUoK9csKA+rsrSTv3vk5oaPsxqBXNe6bmDB0Ge7pKfkEBdLVts4puhQ4EocSk0FEQMx+7dqz89I4w16qtUD+erTJ56fjrIXH4aEgIYZXBlJXAOw/nz9Vm9kM+Tu7SiyALfT/k8Vhfo8HhOa80BWjZtsRSs0QDNAG0czQBtHBWSQCX3va2Rl+UIXuOiLqIMaqwAvu57NZpG1bqIGgZwcd6uFs4SbLPh4tav2qhzX6EV5wDOia+rFzTXuLVLcaCMoCzNUAhqjOL75GYuFDV8B/fuDWzBoGT/iucQbmnFK4CGEmgGaONoBmjjqLQNdPffuICj6WuACgZonCUHKlvX9GloaGi4x4f9uOK1foVr3Zo+b/T5YgAXt2L9xdvbvZo+JfT5kgSqVOtXrNat6fMCrQ7QxlHhLMDfO3Vqo+lriLYCtHE8vEXbrDd8vMxqNX3+6PPEACplrS/D06xW0+ePPu0V0MbxwADNfQPG29q3ps8/fRoaGhoaGhptkf8BT8fwDM0cDjcAAAAldEVYdGRhdGU6Y3JlYXRlADIwMjMtMDQtMTZUMDg6MzM6MTUrMDA6MDC+/0WhAAAAJXRFWHRkYXRlOm1vZGlmeQAyMDIzLTA0LTE2VDA4OjMzOjE1KzAwOjAwz6L9HQAAACh0RVh0ZGF0ZTp0aW1lc3RhbXAAMjAyMy0wNC0xNlQwODozMzoxNSswMDowMJi33MIAAAAASUVORK5CYII=;" vertex="1" parent="1">
          <mxGeometry x="-35" y="560.5" width="50" height="50" as="geometry" />
        </mxCell>
        <mxCell id="zaOTciwMg_2Ca42rMOiH-124" value="" style="shape=image;verticalLabelPosition=bottom;labelBackgroundColor=default;verticalAlign=top;aspect=fixed;imageAspect=0;image=data:image/png,iVBORw0KGgoAAAANSUhEUgAAAEAAAABAEAYAAAD6+a2dAAAAIGNIUk0AAHomAACAhAAA+gAAAIDoAAB1MAAA6mAAADqYAAAXcJy6UTwAAAAGYktHRAAAAAAAAPlDu38AAAAJcEhZcwAAAGAAAABgAPBrQs8AAAAHdElNRQfnBBAIIyzgbjr/AAAM5klEQVR42u2de1zUVd7H3+c3IKBugmsq5o2L5aW8lOYtSvGKGpWolTyyPo/CTIp3jc00k7bYRLMkcQblUXb3WffxkqasF7yhZJq4ZYWAwiCC5S01zCvMzNk/AEFAnEFgmGXef/H6nfM73+855/P7ne85c34HsFOvEdZ2ANbKM9LVFfJjTFnXrlnbm6ojLypzuncHzXseW7//3tremItibQf+c9Hp9F0XLgSd9niyo6O1vXkQdgHUHC8xPiAAiHe7s359XRWCXQA1x0HGnjsHIkn8rUcPQLg1DQ+3tlNlcbC2A/+5qNVeXqNGlb6Azto+lccWBdBLTL1xA0hGnj4NLCJVyuo3I2CMooB8XF598kkglPcaNaokfwvZKyAAoqNPu/z2W/l0p9+cW9+5A5PC2kb+/LO1G7EYGxSA/FYOGDgQNGqvPx4/XqOmlgOs7poV6uMDJiSHDlXq2RsLF4KiVo186ilQ/MTVq1dBBsgjGg0YAgvcv/gCCCMyIMDarViMDQpAGBk7eDCsXp05piae/LKYJkuvQYOAGLIqyycnM3LDBjiv5KQFBsLihIHCYICYaH1QQgKYvhPNPDxK8us6ZhrmzQNmibNLlpQuCOnjA2qNl/dXX9V07WxQAAAREWAyCRERUQvGLO14Udjxn/TJXebiAiHebeZs2VLBjW3E4Y4dAWh933UhMoquU5EAisudfbTNnNu3H7Vy9llAlXlQx+t66BMWLYJGq/NFaiqsytQP79+/5L4VwzNCH3sMSOV6z57lyxV/IdfHp/y0MWaDfszEidD4RMH3ubkQk5f1yn1BZpWwrwRazgoyfv0VXPY1Eq1bQ1DLlsNu3gRteOaqoCAQLcTQuLiS7EIj3jEYQL4sr+/YAbwv8PUFkuXKxo0rtRR3/jyIpbRMSQE5l2FDhpRKjRY98/NBxJh6PfsshPT2Tjh50tLK2OQQIE4HB4PRqOq8eXPNWWmQoWwSAkxxBb7jx4OMkI9FRQHT6eDqCrfybwV++GFh3pkzwbC9wPDPf4JjZ6dR584B/WR869YgtTLCoaid/f2BZLMDlz+4u4OcC+7uFaRukblJSfCTh1ejtLTChrG8ljYoAFOIcXhmJkwRnqI23hja5/UhWVkgIKz0dfGKDJ8+HVYPzdq2eTMEJ3hOS0oC3eTMpUFBAIL9+yspuB9fZmeD0IjGhw6BnCAPubgAfeg9eDDwDSPc3Cq4rzc7rl0Dh42OOUFBsDhMRJpMVa2dDQpACVbm7d0LuhP6qOvXa8GgAYcmTYBwpm7bBtKfAR98AEavO8fT02Hqpi6bbtwoyS5fEE0UBcSDIvh1YtGSJeDmevvOwoUw7nCXTfn5wOHC5P99J8P18cehoL0yYu3awmsjR5bcLp6jmbMz3H72JnfvPmrlHiEGiI4+e9bNDVQqg0GtBhALevcGdsvQSse2YeLzGzdArfZc/9prNhQDSCYtWwZqjVfi3Lkll1cN0Tdv3hyUMfLtLl2AeUr0ggVApNzj61vqfj9it28HdVuvj/z9H24u9uP0Nb/7HRhGOF7/4Qfga15p374kXWwWfbVaME5j99q1ULDSGJueDtN3dfjc/AejCgJYMytzprc3GK8quw8c4N5YZzZFQZT6pNdwNzfbFUDMh/qQGTNANiPs008ffrtIFAOGDIGQ9Z65e/eab7Z4VoEGr/fff3h+JUXx7NsXgqM8xNGjD8tdhSHA+JNyOC4OGGRhx1cT4h9sjI0F+boYu3t3DdpZhruzM8gvpDY8nHuv6GJkM9GzMLgzL6gzdRLPXb4MQK4lfsipfHvxIggjXubkN8ww+alUQJQ5uS0QwJqfs261awfG7fJ8v34VZDjApeRkYAArs7MrqdA34sebN4HKp0APvv8NJWzpUlCrPUR6etXKsATdjKxX+vcHxt3f0coskZeSAqYU2WLfPmA4kzp1AubwUatW5csRLYzru3cHwMWSDSNitKBHD2BjGaEls8poBHqK49nZwHQZmpYGSpTJ+8IFs0s335GY+Zlb+vUD2U50PXy4fLrxD8qrHTvCFGePH0+dMr9ci4cAKSbp9QCy9bffmm/HYnbwi5MTMFL84ucHSNl4xYryMUC5dnozq82f/wxygEwMC7s/LScH7m4xLX/mmYeP1drwM6926wZiszx47BgwRR5v0KBUM8TLBa++Cprt3uu//LKqlbTgDWD8H6ETApR9rKwoXXnR1LdoOvJjNXVBxQgZ61X0MvQy66VYRe5F3kVPng/N/P0hZrR+uRDACCUyPR0M+QX++/bBlClPrs/KAqWlKWDNGjAiKCuAtm3BKVXJOXoUdLrMpVOnws8hXnMOHoT2ZNOgAeTHGO+8/jqIGVK9bBnIz+7veDGLIxcugNs6r7/HxwPbWV/1StrgNNBqfMUvHTqAHMaE2bNBhMqsK1fAMVg8VvRqB8CYKEYEBgIdH1DOuyzv1AmK1wlaxZzpVVAA+c/JSSoVgBiqKCA/k4squl0+RfMWLSBvYvbSwYMLr1U9FrJFASSy+MQJYKXofOxYDdrZiN7JCUC2HTsWgPENG5Ykm4aYCiZNAk1Uh8/PnQOdVp/5wgsg3hLzFywAiTTzpyr5/46OwL/M9EuDlxBgOmJyjYuD1bOzYrp1g+CuniEXL1paSRsUgNTjPG4caJp6/jEjo+btaS/q/3LzJoitMGVK4bW8PHDwpkXptXdxRwTcvQuys/y4eGHI1RXEAtEpJQWIF/0++ABkW9l39GhgG3tGj4Z7AihFXh5IPxG4bh2InaYD330HoPguXQog/9asGfC2+OTKFcCAL1XGBgUgmjMhIgJ0LTPfTkioQTvTxBIXF5BbyXztNQDu/abXpEnJOsiaWZkzBw6EyTM9P01OhphPs8KGDgUZKI+PHw831jpGzJ8Ps3vf+/k2ccMG0DXUP79rF7Achg0rZViLfvly0Kg9jy5eDIALQOzHOfP27AHjroKN4eEg+uL77rslT742J3Pm8OGg2k3o5csQHOzt/a+HvlVsUAC8TKuAAOBlQU3urJFl1v7LUbQAZvxaGVWREJiJY3JySfaVY87Ili1h6iYPceECcInDaWnA/5FTWgBCq3yUlgb0vt9c6a1kkycDXQv/Lu54sVgEbtkChncILY4NHo4tCqCuUUYIOl1G6IAB0CDEIerKFcjXmSbExICIl1uK5+fTp4N4Q15PSAA5Six64omS4uQJw9NFT25iZWbLdjzP09TZ2VLnbVAAYgrHbt8GGovE8+et7U0pbsj33N1BogpPTIT8JaYdRiPwNovbtQPZQF4ovQQcEu/9+507gXjYudN8Mzrd2aHu7sBiwyN0fDE2KAC5UkkaOBDUGg/dN99Y25sSVk87o+3TB+TTpuePHAHKrpYuonPXrqAbmqUvnFVcvbp1K6g1PXsVFFhQ/1hD+8aNQUx6lI4vxgYFIHLkfB8fiI4+fa1obb1OYFphNPr4AE8/YHn1KFebNweEZMMGaBDy+55uboAGfv3VWl7boABkO3k3MhJUqP4UGWltb0oxi7PWdsFy7JtC6zl2AdRzbHEIULHxrbfAlG/8viYXgixFpVL9qXg+Hx1tbW/MxQYFoNogzp08CZqEwl/f6goxb53xTk0F2d000dq+mI8NCkDu4dL+/aCboA/JzQWxTYja+ETsgf74SykEoJWn2rQBtNZuIUuwRQGU2mfv4QHyBSv2fmm/6ogflmEPAus5dgHUc+wCqOfUgRhgIu3Jy4NVxhyHpk2t7U1t1rsteXnw31b1og4IQIiSKL5OfxhSzRTvLrIu9iGgnmMXQD2nGocA0UqkffYZ6LT6/yr9taydamaXSCv8+LY61h2qMwbwk+v8/KzTJvUKv+pccLIPAfUcCwQg/q4421/tdR+HW2J0RQdVVowlAmh+5d3UVGC56FOXtmLZKaIPTS9dgnPPnA1OTTX3JgsEcG/z4ixTzrx51q6tnbKIMcJp7tyS4+rMowoxgFrt7RIXB0jBuHFAEpdPn7Z29esf4h2STp0CESt6jhkDIRmeDf/6V4tLqT6Hig9AdPBvMK/wK9eaRaUyGIoPqoiPr3l7lTFqFBiNDg5ff13ztgzb8iONRkvPAnoQdeCgyKqiPZx168UXQaTI8wcPWs8P+bRwf+kl0PT3bFj5YdJ1Efs0sJ5jF0A9xy6Aeo5dAPUcK+4HWCQPSAcHeMK3fdcRI0C+Iad16ADSS951MMMvsZA3PTyA1/nEerUo9GP8eNDu1Uf17WtGfr1wMhhA/ENEZWTAT/uzf9ixw9L5e7V5X/sNVnxQgkO4fHPfPiBJfti5c+37UWc4JEafPAlKGFMHDarqWT9VxQpDgGqd7B4Rgb3ji3lRftGlC5jcZVCt/AeU+7CCAESw7Fb6WDU7RUwnpEeP2jZqjSDwEGMVe/BZHqu0i70j7Nipz/wbhQfzZBlxK2YAAAAldEVYdGRhdGU6Y3JlYXRlADIwMjMtMDQtMTZUMDg6MzU6NDQrMDA6MDBddjA2AAAAJXRFWHRkYXRlOm1vZGlmeQAyMDIzLTA0LTE2VDA4OjM1OjQ0KzAwOjAwLCuIigAAACh0RVh0ZGF0ZTp0aW1lc3RhbXAAMjAyMy0wNC0xNlQwODozNTo0NCswMDowMHs+qVUAAAAASUVORK5CYII=;" vertex="1" parent="1">
          <mxGeometry x="1150" y="423" width="50" height="50" as="geometry" />
        </mxCell>
        <mxCell id="zaOTciwMg_2Ca42rMOiH-125" value="" style="shape=image;verticalLabelPosition=bottom;labelBackgroundColor=default;verticalAlign=top;aspect=fixed;imageAspect=0;image=data:image/png,iVBORw0KGgoAAAANSUhEUgAAAEAAAABAEAYAAAD6+a2dAAAAIGNIUk0AAHomAACAhAAA+gAAAIDoAAB1MAAA6mAAADqYAAAXcJy6UTwAAAAGYktHRAAAAAAAAPlDu38AAAAJcEhZcwAAAGAAAABgAPBrQs8AAAAHdElNRQfnBBAIJC3YKJyuAAAE3klEQVR42u2dX2gcRRzHv3Ne0pT4YBpy0FArZkUitPjQVNrQNpqYKCESCqnQJ4nYbCoKRmvvtGqrlqR5aPrQkt6eWGhfFCmCRHzQ2ASS2kgKQlu0Qnel1770WhTBPISkOz7E88w/d/d2d2Z37/d5ueNmd+Y3v/n9fvObmds7gCAIgiCIUoTZv1R70dh68SKAFv55Y6O/Yk1OAqqqKDt3StWOJ4jU21Ks9RhzUJvADuzYIaYdIUgY+DzWenRiAEQEiZABaJquc154FV0eTiJkAEQxOEkCBVu+qioKcyBfUJEdMf5fjxQBSpy4bAGiT1QiGRFJyDJ9J9g5gI0pINgdWE76hRt7OzsBtobN9fUB+BWVDQ0AXsMHlZUOGj6Fj2ZmADbDNk5PA+ZlNA8NAb3r6p4ZGXHWh8nJhVehG1wpXJmYsLrIhmI1TdfzFcnogPqHsnvXLuvLM3uNh48dA/jTfDyZ9FGul/Fefz+glimfHTrkXzNLHY9yiVXIe/y/GzVPGlWzs0CmQn/+4EHg08Hs27W1zuvN35ce1U8mk4V68+1k/jQ6Ozr865eYjacIWJTWpXeNjwNoxWBTE8AVfJNKAb3PKq8PDnrYjqbrqdTC+4EBAGBvjo0Bqlr3VXNzcfV5ObDFRYgoLAPfZX9t2QJgekGbTI+PnDtXKHZzGrf4NC2+/+xZAJg/PTAA4Ef83NAgu/NuiUIEsJgr3XqaVX3hnptpJ7DE8dEAonl6FjUoAgQWMQ7kYxIY7rmxVIjCKiCiiHEgygEIvyADcAflAIQAQjBA6af0nvZ2gD3BJjQNQCP/esMG2VLZI/jPN4QgBwjjwOcJ/vMNYdgHCOHAewHlAIQASmEfIA2dc0D9SWmLxQDOOWcMyGQMwzRtlEuC9gG84hMsav8IgEWKtSqPNBGOAKt50IeMsbxnr1R+BADnQAbs+wMHAAwj2d8P4FV+ubxcnPxijp0pB1gGY4zlFX/8OJB50HjANAEOYGhItnSe91a2ANZ4NYU4+aLIf9fvp7b+crK6Gih7pbz93j337QaLUsgBnJLClVDJ64oI5wBW2PXM8tY1u7u7AQ4+K1I+ygECAn+Ez8Yj6yiR7Zg1dnMA8zy2nzkDxLpwaeHr4GKgfQBZUA4QDaw8yK6HsSTe7+4GoIuVn3IAyeQfLUMrmzh6FOBp3i5bJu8JwQC5Pk7uZe/MzwM9vO6LsjLgMB/j8ThQm9lozM2tVM55LAbUZgzj/n338gfbEcJwHOwRw8M3b1ZVAYk9iT0VFauXK3fufLt2rWxpRRFYyywQuiRyCRQBiAATBgP4gXXcvi1biOLIZmVLYEUIDIB/bD63bx/A3mKP37olWxp7ZLNArC/2ZU+PbEmscPRDkb/x+noAMA9fuAAAeGn9+hUuPMG23b0L4A1+qaUFUHuVx65eld3R8CFG3zYiwOlWPbFpE6Cqj7Lr1wHzPNJtbQC2YV0ut8INfXyqpgbAdlSPjhbuJ+wROH1r9UZNLgdoaf3G5s2y1RN9xOrbTg6wxMIInxGqbydbwVP4PZFY/rHTdXqw18UBQoi+Q7AKsAv9X0Ax2DGA1ZIPwh+E6tvOFDAVe6ipCQDME/8sRwKJ2+Nfr46PXSNU3zYiwLLlCOErYvXtIAfY/52Su3ZNpmpKC9I3QRAEQRD+8Tdv7+kX3NSTkgAAACV0RVh0ZGF0ZTpjcmVhdGUAMjAyMy0wNC0xNlQwODozNjo0NSswMDowMBA2gIEAAAAldEVYdGRhdGU6bW9kaWZ5ADIwMjMtMDQtMTZUMDg6MzY6NDUrMDA6MDBhazg9AAAAKHRFWHRkYXRlOnRpbWVzdGFtcAAyMDIzLTA0LTE2VDA4OjM2OjQ1KzAwOjAwNn4Z4gAAAABJRU5ErkJggg==;" vertex="1" parent="1">
          <mxGeometry x="861.75" y="567" width="56.5" height="56.5" as="geometry" />
        </mxCell>
      </root>
    </mxGraphModel>
  </diagram>
</mxfile>
